<svg xmlns="http://www.w3.org/2000/svg" width="127.378" height="143.948" viewBox="0 0 127.378 143.948">
  <g id="Grupo_212707" data-name="Grupo 212707" transform="translate(-139.757 -20.667)">
    <g id="Grupo_212708" data-name="Grupo 212708" transform="translate(139.757 20.667)">
      <path id="Trazado_231442" data-name="Trazado 231442" d="M24.634,159.173c-2.009-1.482-2.2-2.089-1.522-4.653q5.422-20.414,10.84-40.828c.664-2.5,1.373-3.059,3.945-3.06q11.9,0,23.805,0H63.66c-.325-.617-.535-1.051-.775-1.466q-7.984-13.8-15.971-27.6c-9.234-16.027-6.507-35,7.057-47.593,8.282-7.689,18.259-10.781,29.515-9.819a38.089,38.089,0,0,1,34.3,33.357,36.354,36.354,0,0,1-4.561,23.026c-5.42,9.577-10.993,19.068-16.5,28.6-.231.4-.443.809-.821,1.5h1.777q13.451,0,26.9,0c2.677,0,3.333.516,4.022,3.131.573,2.171,1.179,4.334,1.709,6.516a2.8,2.8,0,1,1-5.4,1.458c-.526-1.788-.987-3.594-1.482-5.409H109.51v25.633l23.3,9.6c-.489-1.841-.94-3.423-1.324-5.021a2.813,2.813,0,0,1,1.475-3.433,2.684,2.684,0,0,1,3.308.706,5.337,5.337,0,0,1,.785,1.77c.832,3.021,1.62,6.055,2.426,9.084.64,2.405.416,3.044-1.589,4.5Zm55.112-32.135c.292-.428.49-.679.648-.953q13.791-23.831,27.566-47.671a31.622,31.622,0,0,0,3.705-23.162,32.586,32.586,0,1,0-59.91,23.432c4.821,8.246,9.573,16.534,14.358,24.8,4.5,7.78,9.006,15.558,13.634,23.553M29.237,153.445H72.181c-.261-.31-.392-.492-.549-.649-5.541-5.535-11.074-11.08-16.653-16.577a2.694,2.694,0,0,0-1.724-.624c-5.822-.045-11.644-.027-17.466-.027h-1.8l-4.748,17.877m92.8.1.05-.233c-.4-.19-.8-.4-1.211-.568-11.436-4.714-22.945-9.261-34.278-14.211a31.462,31.462,0,0,0-15.342-3c-2.828.218-5.687.039-8.806.039.492.538.781.879,1.1,1.195,5.276,5.27,10.568,10.525,15.819,15.82a2.97,2.97,0,0,0,2.323.979q19.579-.048,39.158-.021Zm-86.524-23.7H74.835c-2.439-4.226-4.82-8.3-7.134-12.409a2.075,2.075,0,0,0-2.1-1.2c-8.353.044-16.706.024-25.059.024H39.12l-3.607,13.588m48.338,1.535,19.859,8.186v-23.3c-3.584,0-7.094-.014-10.6.026a1.242,1.242,0,0,0-.843.584c-2.786,4.764-5.543,9.545-8.413,14.506" transform="translate(-22.757 -15.225)"/>
      <path id="Trazado_231443" data-name="Trazado 231443" d="M327.384,32.375c-.325,2.5-.6,5.01-.991,7.5-.35,2.212-1.7,3.3-3.481,2.959-1.723-.328-2.5-1.876-2.036-4.108a31.446,31.446,0,0,0-1.536-18.192A33.256,33.256,0,0,0,308.276,6.123a4.873,4.873,0,0,1-1.591-2.314,2.347,2.347,0,0,1,1.278-2.718,2.713,2.713,0,0,1,3.165.189,38.346,38.346,0,0,1,8.261,7.971,39.188,39.188,0,0,1,7.994,23.124" transform="translate(-200.005 -0.667)"/>
      <path id="Trazado_231444" data-name="Trazado 231444" d="M306.13,46.885c-.161,1.271-.345,3.133-.645,4.976-.347,2.13-1.656,3.225-3.367,2.946-1.752-.285-2.6-1.839-2.17-4.035a20.94,20.94,0,0,0-4.491-18.03,45.246,45.246,0,0,0-4.563-4.354c-.862-.8-1.453-1.8-.922-2.857a4.25,4.25,0,0,1,2.066-2,3.1,3.1,0,0,1,2.442.578c7.4,5.535,11.356,12.893,11.649,22.777" transform="translate(-189.503 -14.895)"/>
      <path id="Trazado_231445" data-name="Trazado 231445" d="M284.827,62.038c-.084.621-.169,1.838-.426,3.018a2.81,2.81,0,0,1-5.516-1.074c.969-4.825-.611-8.6-4.472-11.564a2.716,2.716,0,0,1-.533-3.975,2.792,2.792,0,0,1,4.008-.407,16.446,16.446,0,0,1,6.94,14" transform="translate(-179.183 -29.837)"/>
      <path id="Trazado_231446" data-name="Trazado 231446" d="M306.53,308.17a2.784,2.784,0,0,1,0,5.568,2.762,2.762,0,0,1-2.811-2.863,2.73,2.73,0,0,1,2.815-2.705" transform="translate(-198.211 -192.697)"/>
      <path id="Trazado_231448" data-name="Trazado 231448" d="M40.013,339.011l4.747-17.877h1.8c5.822,0,11.644-.018,17.466.028a2.692,2.692,0,0,1,1.723.624c5.579,5.5,11.112,11.042,16.654,16.577.157.157.288.339.549.648Z" transform="translate(-33.533 -200.791)" fill="#0387d0"/>
      <path id="Trazado_231449" data-name="Trazado 231449" d="M188.047,338.914h-1.189q-19.579,0-39.158.021a2.971,2.971,0,0,1-2.324-.98c-5.252-5.294-10.543-10.549-15.819-15.819-.315-.315-.6-.657-1.1-1.195,3.119,0,5.978.18,8.806-.038a31.466,31.466,0,0,1,15.342,3c11.332,4.95,22.842,9.5,34.277,14.211.412.17.808.378,1.211.568l-.05.233" transform="translate(-88.767 -200.599)" fill="#ffe6a1"/>
      <path id="Trazado_231450" data-name="Trazado 231450" d="M56.727,283.251l3.607-13.588h1.422c8.353,0,16.706.019,25.059-.025a2.075,2.075,0,0,1,2.1,1.2c2.314,4.11,4.7,8.182,7.134,12.409Z" transform="translate(-43.971 -168.635)" fill="#ffe6a1"/>
      <path id="Trazado_231451" data-name="Trazado 231451" d="M185.452,284.836c2.87-4.961,5.627-9.742,8.413-14.506a1.242,1.242,0,0,1,.843-.584c3.509-.04,7.019-.026,10.6-.026v23.3l-19.859-8.185" transform="translate(-124.357 -168.684)" fill="#0387d0"/>
      <path id="Trazado_231452" data-name="Trazado 231452" d="M123.7,92.812a18.859,18.859,0,1,1,18.758,18.854A18.788,18.788,0,0,1,123.7,92.812m5.646,0a13.209,13.209,0,1,0,13.27-13.166,13.224,13.224,0,0,0-13.27,13.166" transform="translate(-85.792 -46.473)"/>
      <path id="Trazado_231453" data-name="Trazado 231453" d="M138.731,102.179a13.209,13.209,0,0,1,26.418.016,13.209,13.209,0,0,1-26.418-.016" transform="translate(-95.181 -55.838)" fill="#ffe6a1"/>
    </g>
  </g>
</svg>
