<svg xmlns="http://www.w3.org/2000/svg" width="87" height="87" viewBox="0 0 87 87">
  <g id="Grupo_926978" data-name="Grupo 926978" transform="translate(-336.333 -4046)">
    <rect id="Rectángulo_48901" data-name="Rectángulo 48901" width="87" height="87" rx="11" transform="translate(336.333 4046)" fill="#fff"/>
    <g id="Grupo_213017" data-name="Grupo 213017" transform="translate(242.971 4058.125)">
      <path id="Trazado_233998" data-name="Trazado 233998" d="M165.74,99.336s-1.091,4.7,1.512,4.311l7.742-10.286-4.977-5.343Z" transform="translate(-24.416 -38.796)" fill="#fff" stroke="#eb6f2d" stroke-miterlimit="10" stroke-width="1.5"/>
      <path id="Trazado_233999" data-name="Trazado 233999" d="M110.7,65.964a5.159,5.159,0,0,0,1.285,4.841c1.025,1.322,2.291-.836,2.291-.836l16.29-26.511L120.32,30.718S111.22,63.755,110.7,65.964Z" transform="translate(0 -13.35)" fill="#fff" stroke="#eb6f2d" stroke-miterlimit="10" stroke-width="1.5"/>
      <path id="Trazado_234000" data-name="Trazado 234000" d="M116.386,9.016a27.1,27.1,0,0,0,3.694,5.445l24.112,29.986c3.7,4.6,7.473,9.269,12.36,12.574.534.361,1.893,1.358,2.531.9.692-.493.269-1.9.052-2.508-2.236-6.307-6.118-11.876-9.954-17.359L130,10.642a36.6,36.6,0,0,0-6.866-8.031C121.62,1.413,119.749.422,117.839.7a2.832,2.832,0,0,0-1.292.5,1.843,1.843,0,0,0-.208.182,2.924,2.924,0,0,0-.657,1.222A9.131,9.131,0,0,0,116.386,9.016Z" transform="translate(-2.15)" fill="#fff" stroke="#eb6f2d" stroke-miterlimit="10" stroke-width="1.5"/>
      <path id="Trazado_234001" data-name="Trazado 234001" d="M188.809,86.66l11.539-4.08c1.067-2.269-3.538-2.645-3.538-2.645l-11.538.607Z" transform="translate(-33.19 -35.207)" fill="#fff" stroke="#eb6f2d" stroke-miterlimit="10" stroke-width="1.5"/>
      <path id="Trazado_234002" data-name="Trazado 234002" d="M182.343,25.445s2.427-.61,1.445-1.965A5.159,5.159,0,0,0,179.5,20.89c-2.267-.119-36.53-.653-36.53-.653l9.355,13.407Z" transform="translate(-14.405 -8.696)" fill="#fff" stroke="#eb6f2d" stroke-miterlimit="10" stroke-width="1.5"/>
    </g>
  </g>
</svg>
