<svg xmlns="http://www.w3.org/2000/svg" xmlns:xlink="http://www.w3.org/1999/xlink" width="131" height="136" viewBox="0 0 131 136">
  <defs>
    <clipPath id="clip-path">
      <rect id="Rectángulo_48644" data-name="Rectángulo 48644" width="131" height="136" transform="translate(0 0)" fill="#ffe6a1"/>
    </clipPath>
  </defs>
  <g id="Grupo_212713" data-name="Grupo 212713" transform="translate(-0.078 -0.077)">
    <g id="Grupo_212712" data-name="Grupo 212712" transform="translate(0.078 0.077)" clip-path="url(#clip-path)">
      <path id="Trazado_231461" data-name="Trazado 231461" d="M0,115.4V23.93a1.742,1.742,0,0,0,.234-.445A14.737,14.737,0,0,1,8.2,12.767c2.939-1.555,6.088-1.4,9.234-1.375,2.624.02,3.038.431,3.038,3.144v9.606H47.682A18.5,18.5,0,0,1,50.829,8.377,17.533,17.533,0,0,1,64.463.771,17.023,17.023,0,0,1,77.83,5.688c5.162,5,7.072,11.189,5.569,18.509h26.089c.384,0,.77-.022,1.151.015a2.087,2.087,0,0,1,1.955,2.07,2.058,2.058,0,0,1-1.994,2.16c-1.234.062-2.472.02-3.709.021q-2.215,0-4.432,0V60.359h24.407V28.464c-1.936,0-3.8.012-5.669,0-1.515-.013-2.427-.819-2.439-2.111s.9-2.135,2.4-2.147c2.3-.017,4.607.056,6.907-.029a3.072,3.072,0,0,1,2.966,1.358v97.607a3.179,3.179,0,0,1-2.967,1.357q-30.829-.05-61.658-.025a5.957,5.957,0,0,1-1.149-.035,2.13,2.13,0,0,1,.008-4.2,6.167,6.167,0,0,1,1.149-.032H91.6c-.327-.377-.434-.513-.554-.637Q70.939,98.86,50.807,78.179a2.55,2.55,0,0,0-1.682-.618c-9.125-.038-18.25-.027-27.375-.027H20.474v1.652q0,12.864,0,25.727c0,1.793-.665,2.484-2.384,2.488-2.516.006-5.032-.038-7.547.011a6.417,6.417,0,0,0-6.193,8.18,6.163,6.163,0,0,0,6.044,4.6c6.567.019,13.133,0,19.7.01,1.6,0,2.535.814,2.522,2.149-.012,1.291-.926,2.109-2.433,2.11-6.695.008-13.389.041-20.083-.013a10.289,10.289,0,0,1-9.825-8.186c-.07-.294-.182-.576-.274-.864M126.875,64.733h-1.482q-12.089,0-24.178,0c-2.348,0-2.941-.619-2.941-3.069q0-15.8,0-31.594V28.529H90.084v1.491q0,15.864,0,31.728c0,2.345-.622,2.985-2.9,2.985q-21.684,0-43.368,0c-2.259,0-2.872-.642-2.872-3.007q0-15.864,0-31.728V28.554H32.758v1.538q0,15.864,0,31.728c0,2.25-.647,2.91-2.836,2.913-2.772,0-5.544,0-8.315,0-.364,0-.728.05-1.061.074v8.457h1.448c9.339,0,18.678.021,28.016-.025a4.03,4.03,0,0,1,3.172,1.325q20.08,20.739,40.208,41.428c1.334,1.374,2.469,3.271,4.077,3.956,1.651.7,3.769.238,5.683.249,2.882.017,5.765,0,8.893,0-.448-.506-.712-.829-1-1.126Q91.571,99.023,72.1,78.973a12.332,12.332,0,0,1-1.953-2.094,3.041,3.041,0,0,1-.4-2.278c.248-.606,1.172-.958,1.855-1.3.311-.157.755-.03,1.139-.03h54.137ZM16.323,15.517a33.917,33.917,0,0,0-4.443.573C7.032,17.374,4.1,21.534,4.1,27.026q-.014,38.451,0,76.9v1.3c3.855-3.142,8.2-1.693,12.228-2.183ZM126.88,77.595H76.652c.272.313.423.505.591.678Q97.3,98.937,117.36,119.591a1.658,1.658,0,0,0,.937.584c2.842.045,5.686.026,8.583.026ZM45.1,60.371H85.885V28.465c-1.169,0-2.239-.061-3.3.034a1.41,1.41,0,0,0-.986.722A168.074,168.074,0,0,1,67.71,54.49c-1.493,2.327-2.9,2.325-4.391,0C58.128,46.4,53.2,38.157,49.431,29.216a1.3,1.3,0,0,0-.865-.717c-1.133-.086-2.275-.034-3.467-.034ZM65.511,50.3c1.457-2.409,2.8-4.557,4.074-6.751A114.509,114.509,0,0,0,78.77,25a14.9,14.9,0,0,0,.574-9C77.266,7.939,68.915,3.179,61.258,5.668a14.857,14.857,0,0,0-9.11,19.04c3.358,9.054,8.289,17.176,13.363,25.591M28.576,28.57H20.538V60.4h8.038Z" transform="translate(-0.042 -0.515)"/>
      <path id="Trazado_231464" data-name="Trazado 231464" d="M111.684,299.168a22.178,22.178,0,0,1-1.511-1.756c-4.88-6.966-9.539-14.062-12.776-22.073a16.766,16.766,0,0,1,3.626-18.255,15.917,15.917,0,0,1,17.9-3.487,17.213,17.213,0,0,1,9.9,15.668,20.675,20.675,0,0,1-2.187,8.147c-3.292,7.469-7.759,14.181-12.444,20.747a9.149,9.149,0,0,1-.973,1.009Zm.764-5.665c1.278-1.927,2.445-3.617,3.54-5.356,2.969-4.715,5.895-9.461,7.852-14.761a11.374,11.374,0,0,0,.678-6.385c-1.046-5.047-3.886-8.475-8.612-9.938a11.206,11.206,0,0,0-12.372,3.521,11.852,11.852,0,0,0-2.426,12.924c2.763,7.194,7.017,13.461,11.339,20" transform="translate(-63.357 -162.411)"/>
      <path id="Trazado_231465" data-name="Trazado 231465" d="M166.539,114.961V123.5H112.4c-.384,0-.828-.128-1.139.03-.683.345-1.607.7-1.855,1.3a3.039,3.039,0,0,0,.4,2.278,12.327,12.327,0,0,0,1.952,2.094q19.472,20.053,38.944,40.105c.288.3.552.62,1,1.126-3.128,0-6.011.013-8.893,0-1.914-.012-4.031.454-5.683-.249-1.608-.685-2.743-2.582-4.077-3.956q-20.112-20.7-40.208-41.428a4.029,4.029,0,0,0-3.172-1.325c-9.339.046-18.677.025-28.016.025H60.208v-8.457c.332-.024.7-.073,1.061-.074,2.772-.006,5.544,0,8.315,0,2.189,0,2.836-.663,2.836-2.913q0-15.864,0-31.728V78.782h8.189v1.444q0,15.864,0,31.728c0,2.365.613,3.006,2.872,3.007q21.684,0,43.368,0c2.273,0,2.895-.641,2.895-2.985q0-15.864,0-31.728V78.756h8.189V80.3q0,15.8,0,31.594c0,2.45.593,3.068,2.941,3.068q12.089,0,24.179,0Z" transform="translate(-39.705 -50.743)" fill="#ffe6a1"/>
      <path id="Trazado_231466" data-name="Trazado 231466" d="M24.225,42.233v87.526c-4.029.49-8.373-.959-12.228,2.183v-1.3q0-38.452,0-76.9c0-5.493,2.933-9.653,7.781-10.937a33.933,33.933,0,0,1,4.443-.573" transform="translate(-7.945 -27.231)" fill="#ffe6a1"/>
      <path id="Trazado_231471" data-name="Trazado 231471" d="M310.391,222.315a10.436,10.436,0,0,1,9.346,14.285,53.878,53.878,0,0,1-7.913,12.683,1.871,1.871,0,0,1-3.116-.056,55.6,55.6,0,0,1-7.8-12.45,10.439,10.439,0,0,1,9.481-14.462m-.285,22.42c2.524-3.527,4.73-6.664,6.038-10.361a4.726,4.726,0,0,0,.234-2.084,6.068,6.068,0,0,0-4.169-5.371,6.129,6.129,0,0,0-7.386,8.481c1.614,3.056,3.394,6.017,5.283,9.335" transform="translate(-197.728 -143.158)"/>
      <path id="Trazado_231472" data-name="Trazado 231472" d="M184.378,33.21a8.193,8.193,0,1,1-8.221-8.529,8.385,8.385,0,0,1,8.221,8.529m-4.1.031a4.094,4.094,0,1,0-4.085,4.23,4.214,4.214,0,0,0,4.085-4.23" transform="translate(-110.718 -15.932)"/>
      <path id="Trazado_231473" data-name="Trazado 231473" d="M128.148,276.207A8.541,8.541,0,1,1,120,284.814a8.376,8.376,0,0,1,8.145-8.607m4.132,8.486a4.093,4.093,0,1,0-4.015,4.3,4.206,4.206,0,0,0,4.015-4.3" transform="translate(-79.097 -177.851)"/>
      <path id="Trazado_231475" data-name="Trazado 231475" d="M188.193,40.957a4.091,4.091,0,1,1-4.029-4.29,4.195,4.195,0,0,1,4.029,4.29" transform="translate(-118.631 -23.648)" fill="#0387d0"/>
      <path id="Trazado_231476" data-name="Trazado 231476" d="M140.2,292.41a4.091,4.091,0,1,1-4.1-4.216,4.2,4.2,0,0,1,4.1,4.216" transform="translate(-87.012 -185.568)" fill="#0387d0"/>
      <path id="Trazado_231477" data-name="Trazado 231477" d="M326.039,250.526a2.127,2.127,0,1,1,2.072-2.063,2.082,2.082,0,0,1-2.072,2.063" transform="translate(-213.505 -158.581)"/>
    </g>
  </g>
</svg>
