<svg xmlns="http://www.w3.org/2000/svg" width="59.194" height="51.795" viewBox="0 0 59.194 51.795">
  <path id="Icon_awesome-quote-right" data-name="Icon awesome-quote-right" d="M53.645,2.25h-14.8A5.551,5.551,0,0,0,33.3,7.8V22.6a5.551,5.551,0,0,0,5.549,5.549H48.1v7.4a7.406,7.406,0,0,1-7.4,7.4h-.925A2.768,2.768,0,0,0,37,45.721V51.27a2.768,2.768,0,0,0,2.775,2.775H40.7a18.493,18.493,0,0,0,18.5-18.5V7.8A5.551,5.551,0,0,0,53.645,2.25Zm-33.3,0H5.549A5.551,5.551,0,0,0,0,7.8V22.6a5.551,5.551,0,0,0,5.549,5.549H14.8v7.4a7.406,7.406,0,0,1-7.4,7.4H6.474A2.768,2.768,0,0,0,3.7,45.721V51.27a2.768,2.768,0,0,0,2.775,2.775H7.4a18.493,18.493,0,0,0,18.5-18.5V7.8A5.551,5.551,0,0,0,20.348,2.25Z" transform="translate(0 -2.25)" fill="#eb6f2d"/>
</svg>
