<svg xmlns="http://www.w3.org/2000/svg" width="37" height="37" viewBox="0 0 37 37">
  <g id="Grupo_926980" data-name="Grupo 926980" transform="translate(-910.333 -8558)">
    <circle id="Elipse_5851" data-name="Elipse 5851" cx="18.5" cy="18.5" r="18.5" transform="translate(910.333 8558)" fill="#eb6f2d"/>
    <g id="Grupo_926979" data-name="Grupo 926979">
      <path id="Trazado_621371" data-name="Trazado 621371" d="M13.5,25H1.594V22.422l5.484-5.766q2.027-2.309,2.027-3.668a2.551,2.551,0,0,0-.48-1.676,1.715,1.715,0,0,0-1.395-.574,1.737,1.737,0,0,0-1.465.768A3.155,3.155,0,0,0,5.2,13.422H1.242a5.6,5.6,0,0,1,.785-2.9,5.506,5.506,0,0,1,2.18-2.08,6.475,6.475,0,0,1,3.117-.75,6.369,6.369,0,0,1,4.26,1.277,4.56,4.56,0,0,1,1.494,3.668A5.326,5.326,0,0,1,12.7,14.6a8.608,8.608,0,0,1-1.166,2A29.372,29.372,0,0,1,8.988,19.41l-2.2,2.543H13.5Z" transform="translate(921.333 8562)" fill="#fff"/>
    </g>
  </g>
</svg>
