<svg xmlns="http://www.w3.org/2000/svg" width="40" height="40" viewBox="0 0 40 40">
  <g id="Grupo_926981" data-name="Grupo 926981" transform="translate(-666.333 -8032)">
    <g id="Grupo_926983" data-name="Grupo 926983">
      <circle id="Elipse_5854" data-name="Elipse 5854" cx="20" cy="20" r="20" transform="translate(666.333 8032)" fill="#eb6f2d"/>
      <path id="Trazado_621372" data-name="Trazado 621372" d="M5.2,14.816H7.066a1.937,1.937,0,0,0,2.215-2.168,1.875,1.875,0,0,0-.527-1.377,2,2,0,0,0-1.488-.533A2.141,2.141,0,0,0,5.9,11.2a1.394,1.394,0,0,0-.58,1.137H1.371a4.043,4.043,0,0,1,.75-2.4A4.953,4.953,0,0,1,4.2,8.283a7.112,7.112,0,0,1,2.924-.592,6.988,6.988,0,0,1,4.477,1.3,4.324,4.324,0,0,1,1.629,3.574,3.6,3.6,0,0,1-.674,2.08,4.8,4.8,0,0,1-1.963,1.588,4.587,4.587,0,0,1,2.133,1.494,3.935,3.935,0,0,1,.773,2.479,4.4,4.4,0,0,1-1.758,3.656,7.3,7.3,0,0,1-4.617,1.371A7.567,7.567,0,0,1,4.014,24.6a4.875,4.875,0,0,1-2.174-1.77A4.6,4.6,0,0,1,1.1,20.254H5.074a1.778,1.778,0,0,0,.633,1.359,2.234,2.234,0,0,0,1.559.574,2.34,2.34,0,0,0,1.664-.58,1.939,1.939,0,0,0,.621-1.482A2.267,2.267,0,0,0,8.906,18.3a2.694,2.694,0,0,0-1.781-.539H5.2Z" transform="translate(679.333 8037)" fill="#fff"/>
    </g>
  </g>
</svg>
