<svg xmlns="http://www.w3.org/2000/svg" width="37" height="37" viewBox="0 0 37 37">
  <g id="Grupo_926984" data-name="Grupo 926984" transform="translate(-889.333 -8237)">
    <circle id="Elipse_5852" data-name="Elipse 5852" cx="18.5" cy="18.5" r="18.5" transform="translate(889.333 8237)" fill="#eb6f2d"/>
    <path id="Trazado_621373" data-name="Trazado 621373" d="M1.828,16.665,2.871,7.938h9.973v3.07H6.082L5.7,14.4A4.658,4.658,0,0,1,6.8,13.962a5.053,5.053,0,0,1,1.342-.188,5.006,5.006,0,0,1,3.908,1.506A6.066,6.066,0,0,1,13.418,19.5a6.055,6.055,0,0,1-.732,2.971,5.034,5.034,0,0,1-2.057,2.045,6.493,6.493,0,0,1-3.129.715,6.987,6.987,0,0,1-3.012-.662,5.4,5.4,0,0,1-2.2-1.815A4.41,4.41,0,0,1,1.5,20.153H5.461a2.24,2.24,0,0,0,.6,1.485,1.9,1.9,0,0,0,1.418.55q1.992,0,1.992-2.947,0-2.725-2.437-2.725a2.432,2.432,0,0,0-2.062.889Z" transform="translate(900.333 8241)" fill="#fff"/>
  </g>
</svg>
