<svg xmlns="http://www.w3.org/2000/svg" xmlns:xlink="http://www.w3.org/1999/xlink" width="1240" height="422.359" viewBox="0 0 1240 422.359">
  <defs>
    <clipPath id="clip-path">
      <rect id="Rectángulo_47136" data-name="Rectángulo 47136" width="1239.785" height="202.062" fill="none" stroke="#707070" stroke-width="1"/>
    </clipPath>
    <linearGradient id="linear-gradient" x1="0.5" y1="1" x2="0.5" gradientUnits="objectBoundingBox">
      <stop offset="0" stop-color="#f6f6f6" stop-opacity="0"/>
      <stop offset="1" stop-color="#eae8e8"/>
    </linearGradient>
  </defs>
  <g id="Grupo_926981" data-name="Grupo 926981" transform="translate(-182 -1814.914)">
    <rect id="Rectángulo_47133" data-name="Rectángulo 47133" width="1240" height="422.087" rx="24" transform="translate(182 1814.914)" fill="#f6f5f4"/>
    <g id="Grupo_157117" data-name="Grupo 157117" transform="translate(182.107 2035.211)" clip-path="url(#clip-path)">
      <g id="Grupo_157116" data-name="Grupo 157116" transform="translate(0 42.734)">
        <g id="Grupo_157115" data-name="Grupo 157115">
          <path id="Trazado_223185" data-name="Trazado 223185" d="M-85.98-1559.943s-79.941-8.728-258.876,63.414-578.73-29.689-669.586-41.256-252.707,2.335-311.323,32.271V-758.82H-85.98Z" transform="translate(1325.765 1560.275)" opacity="0.531" fill="url(#linear-gradient)" style="mix-blend-mode: multiply;isolation: isolate"/>
          <path id="Trazado_223186" data-name="Trazado 223186" d="M-85.98-1560.275s-208.5,120.027-500.834,62.646c-152.015-29.839-308.3-3.415-426.6,0-109.668,3.165-181.584-16.441-312.349-44.717v768.367H-85.98Z" transform="translate(1325.765 1575.974)" opacity="0.63" fill="url(#linear-gradient)" style="mix-blend-mode: multiply;isolation: isolate"/>
        </g>
      </g>
    </g>
    <g id="Grupo_926980" data-name="Grupo 926980">
      <g id="Grupo_926979" data-name="Grupo 926979">
        <rect id="Rectángulo_48058" data-name="Rectángulo 48058" width="1240" height="422.087" rx="24" transform="translate(182 1814.914)" fill="#f6f5f4"/>
      </g>
    </g>
    <g id="Grupo_212509" data-name="Grupo 212509" transform="translate(182.107 2035.211)" clip-path="url(#clip-path)">
      <g id="Grupo_212508" data-name="Grupo 212508" transform="translate(0 42.734)">
        <g id="Grupo_212507" data-name="Grupo 212507">
          <path id="Trazado_223187" data-name="Trazado 223187" d="M-85.98-1559.943s-79.941-8.728-258.876,63.414-578.73-29.689-669.586-41.256-252.707,2.335-311.323,32.271V-758.82H-85.98Z" transform="translate(1325.765 1560.275)" opacity="0.531" fill="url(#linear-gradient)" style="mix-blend-mode: multiply;isolation: isolate"/>
          <path id="Trazado_223188" data-name="Trazado 223188" d="M-85.98-1560.275s-208.5,120.027-500.834,62.646c-152.015-29.839-308.3-3.415-426.6,0-109.668,3.165-181.584-16.441-312.349-44.717v768.367H-85.98Z" transform="translate(1325.765 1575.974)" opacity="0.63" fill="url(#linear-gradient)" style="mix-blend-mode: multiply;isolation: isolate"/>
        </g>
      </g>
    </g>
  </g>
</svg>
