<svg xmlns="http://www.w3.org/2000/svg" xmlns:xlink="http://www.w3.org/1999/xlink" width="400" height="416.229" viewBox="0 0 400 416.229">
  <defs>
    <clipPath id="clip-path">
      <rect id="Rectángulo_48842" data-name="Rectángulo 48842" width="326" height="288.496" fill="none"/>
    </clipPath>
    <clipPath id="clip-path-3">
      <rect id="Rectángulo_48828" data-name="Rectángulo 48828" width="13.922" height="25.017" fill="none"/>
    </clipPath>
  </defs>
  <g id="Grupo_926981" data-name="Grupo 926981" transform="translate(-390 -2204.369)">
    <rect id="Rectángulo_48727" data-name="Rectángulo 48727" width="400" height="416.229" rx="11" transform="translate(390 2204.369)" fill="#d2e1f1" opacity="0.4"/>
    <g id="Grupo_926979" data-name="Grupo 926979">
      <path id="Trazado_621377" data-name="Trazado 621377" d="M88.369,25V7.938H94.5a8.679,8.679,0,0,1,5.01,1.207,4.016,4.016,0,0,1,1.717,3.5,4.06,4.06,0,0,1-.609,2.262,3.551,3.551,0,0,1-1.793,1.383,3.6,3.6,0,0,1,2.051,1.313,3.816,3.816,0,0,1,.715,2.344A4.518,4.518,0,0,1,100,23.717,7.556,7.556,0,0,1,95.295,25Zm4.113-7.254v4.09h2.7a2.564,2.564,0,0,0,1.711-.51,1.784,1.784,0,0,0,.6-1.436,1.891,1.891,0,0,0-2.121-2.145Zm0-2.7h2.145a3.047,3.047,0,0,0,1.922-.494,1.752,1.752,0,0,0,.574-1.422,1.839,1.839,0,0,0-.621-1.557,3.324,3.324,0,0,0-2-.476H92.482ZM107.834,25h-3.961V12.32h3.961Zm-4.2-15.949a1.763,1.763,0,0,1,.609-1.383,2.591,2.591,0,0,1,3.164,0,1.763,1.763,0,0,1,.609,1.383,1.763,1.763,0,0,1-.609,1.383,2.591,2.591,0,0,1-3.164,0A1.763,1.763,0,0,1,103.639,9.051Zm6.129,9.492a7.484,7.484,0,0,1,.738-3.381,5.28,5.28,0,0,1,2.121-2.279,6.388,6.388,0,0,1,3.246-.8,5.83,5.83,0,0,1,4.488,1.764,6.768,6.768,0,0,1,1.641,4.8v.141a6.566,6.566,0,0,1-1.646,4.705,5.846,5.846,0,0,1-4.459,1.74,5.912,5.912,0,0,1-4.348-1.623,6.348,6.348,0,0,1-1.77-4.4Zm3.949.246a4.718,4.718,0,0,0,.551,2.578,1.835,1.835,0,0,0,1.629.82q2.109,0,2.156-3.246v-.4q0-3.41-2.18-3.41-1.98,0-2.145,2.941Zm9.527-.223a7.746,7.746,0,0,1,1.3-4.746,4.282,4.282,0,0,1,3.633-1.734,3.641,3.641,0,0,1,2.859,1.336V7H135V25h-3.551l-.2-1.359a3.739,3.739,0,0,1-3.094,1.594,4.274,4.274,0,0,1-3.586-1.734A7.991,7.991,0,0,1,123.244,18.566Zm3.949.246q0,3.375,1.969,3.375a1.944,1.944,0,0,0,1.875-1.1V16.258a1.892,1.892,0,0,0-1.852-1.125q-1.828,0-1.98,2.953ZM141.408,25h-3.961V12.32h3.961Zm-4.2-15.949a1.763,1.763,0,0,1,.609-1.383,2.591,2.591,0,0,1,3.164,0,1.763,1.763,0,0,1,.609,1.383,1.763,1.763,0,0,1-.609,1.383,2.591,2.591,0,0,1-3.164,0A1.763,1.763,0,0,1,137.213,9.051ZM148.9,20.3l2-7.98h4.16L150.924,25h-4.031l-4.137-12.68h4.172Zm13.477,4.934a6.518,6.518,0,0,1-4.723-1.74,6.009,6.009,0,0,1-1.8-4.529v-.328a7.787,7.787,0,0,1,.721-3.434,5.274,5.274,0,0,1,2.1-2.3,6.35,6.35,0,0,1,3.281-.814,5.489,5.489,0,0,1,4.219,1.658,6.516,6.516,0,0,1,1.547,4.623V19.9h-7.852a2.846,2.846,0,0,0,.926,1.676,2.755,2.755,0,0,0,1.852.609,3.549,3.549,0,0,0,2.93-1.312l1.8,2.133a5.045,5.045,0,0,1-2.092,1.623A7.069,7.069,0,0,1,162.373,25.234Zm-.445-10.1q-1.734,0-2.062,2.3h3.984v-.3a1.956,1.956,0,0,0-.48-1.471A1.912,1.912,0,0,0,161.928,15.133Zm15.047.762-1.3-.094a2.336,2.336,0,0,0-2.391,1.172V25h-3.949V12.32h3.7l.129,1.629a3.058,3.058,0,0,1,2.777-1.863,3.851,3.851,0,0,1,1.1.141Zm8.063,5.543a.912.912,0,0,0-.527-.809,8.021,8.021,0,0,0-2-.633,9.138,9.138,0,0,1-2.437-.861A4.083,4.083,0,0,1,178.6,17.84a3.092,3.092,0,0,1-.5-1.746,3.5,3.5,0,0,1,1.441-2.877,5.938,5.938,0,0,1,3.773-1.131,6.579,6.579,0,0,1,4.031,1.137,3.555,3.555,0,0,1,1.523,2.988h-3.961q0-1.523-1.605-1.523a1.591,1.591,0,0,0-1.043.346,1.07,1.07,0,0,0-.422.861.982.982,0,0,0,.516.855,4.872,4.872,0,0,0,1.646.539,14.228,14.228,0,0,1,1.986.5q2.859.984,2.859,3.527a3.321,3.321,0,0,1-1.541,2.824,6.758,6.758,0,0,1-3.99,1.09,6.9,6.9,0,0,1-2.906-.586,4.86,4.86,0,0,1-1.992-1.594,3.609,3.609,0,0,1-.715-2.121h3.691a1.526,1.526,0,0,0,.586,1.283,2.41,2.41,0,0,0,1.441.4,1.9,1.9,0,0,0,1.213-.328A1.05,1.05,0,0,0,185.037,21.438ZM194.857,25H190.9V12.32h3.961Zm-4.2-15.949a1.763,1.763,0,0,1,.609-1.383,2.591,2.591,0,0,1,3.164,0,1.763,1.763,0,0,1,.609,1.383,1.763,1.763,0,0,1-.609,1.383,2.591,2.591,0,0,1-3.164,0A1.763,1.763,0,0,1,190.662,9.051Zm6.129,9.516a7.746,7.746,0,0,1,1.3-4.746,4.282,4.282,0,0,1,3.633-1.734,3.641,3.641,0,0,1,2.859,1.336V7h3.961V25h-3.551l-.2-1.359a3.739,3.739,0,0,1-3.094,1.594,4.274,4.274,0,0,1-3.586-1.734A7.991,7.991,0,0,1,196.791,18.566Zm3.949.246q0,3.375,1.969,3.375a1.944,1.944,0,0,0,1.875-1.1V16.258a1.892,1.892,0,0,0-1.852-1.125q-1.828,0-1.98,2.953ZM217.932,25a4.459,4.459,0,0,1-.375-1.137,3.672,3.672,0,0,1-3.047,1.371,4.5,4.5,0,0,1-3.047-1.084,3.45,3.45,0,0,1-1.254-2.725,3.546,3.546,0,0,1,1.523-3.117,7.761,7.761,0,0,1,4.43-1.055h1.219v-.671q0-1.755-1.512-1.755a1.236,1.236,0,0,0-1.406,1.39h-3.949a3.54,3.54,0,0,1,1.564-2.985,6.575,6.575,0,0,1,3.99-1.147A5.764,5.764,0,0,1,219.9,13.27a4.115,4.115,0,0,1,1.441,3.246v5.613a5.748,5.748,0,0,0,.539,2.672V25Zm-2.473-2.578a2.2,2.2,0,0,0,1.225-.316,1.983,1.983,0,0,0,.7-.715V19.363h-1.148q-2.062,0-2.062,1.852a1.131,1.131,0,0,0,.363.873A1.315,1.315,0,0,0,215.459,22.422Zm7.57-3.855a7.746,7.746,0,0,1,1.3-4.746,4.282,4.282,0,0,1,3.633-1.734,3.641,3.641,0,0,1,2.859,1.336V7h3.961V25h-3.551l-.2-1.359a3.739,3.739,0,0,1-3.094,1.594,4.274,4.274,0,0,1-3.586-1.734A7.991,7.991,0,0,1,223.029,18.566Zm3.949.246q0,3.375,1.969,3.375a1.944,1.944,0,0,0,1.875-1.1V16.258a1.892,1.892,0,0,0-1.852-1.125q-1.828,0-1.98,2.953Z" transform="translate(428.333 2574.769)" fill="#12263f"/>
      <g id="Grupo_212998" data-name="Grupo 212998" transform="translate(426.333 2258.886)">
        <g id="Grupo_212997" data-name="Grupo 212997" clip-path="url(#clip-path)">
          <g id="Grupo_212996" data-name="Grupo 212996">
            <g id="Grupo_212995" data-name="Grupo 212995" clip-path="url(#clip-path)">
              <path id="Trazado_233807" data-name="Trazado 233807" d="M366.634,212.979l-.1-1.418s.632-.043,1.693-.042,2.582.039,4.395.175a66.542,66.542,0,0,1,13.089,2.337,61.382,61.382,0,0,1,12.332,4.981,41.271,41.271,0,0,1,3.793,2.216l1.393.917-.8,1.177-1.359-.894a40.362,40.362,0,0,0-3.7-2.163,60.127,60.127,0,0,0-12.051-4.866,65.112,65.112,0,0,0-12.809-2.287c-1.771-.133-3.251-.183-4.281-.17s-1.6.037-1.6.037" transform="translate(-98.968 -57.112)" fill="#108f6e"/>
              <path id="Trazado_233808" data-name="Trazado 233808" d="M418.015,233.375a5.35,5.35,0,0,1-1.965-3.214,4.466,4.466,0,0,1,.6-3.466,3.9,3.9,0,0,1,3.165-1.659,6.441,6.441,0,0,1,4,1.471,6.2,6.2,0,0,1,2.1,3.721,3.8,3.8,0,0,1-1.065,3.357,4.571,4.571,0,0,1-3.358,1.208,5.565,5.565,0,0,1-3.479-1.418" transform="translate(-112.309 -60.762)" fill="#fce300"/>
              <path id="Trazado_233809" data-name="Trazado 233809" d="M418.019,229.918a10.12,10.12,0,0,0,1.377.536,7.065,7.065,0,0,0,2.7.468,5.405,5.405,0,0,0-.812-2.714,10.255,10.255,0,0,0-.9-1.253,8.744,8.744,0,0,0,3.2-1.572,6.6,6.6,0,0,0,1.112-1.065A11.338,11.338,0,0,0,420.373,223a7.216,7.216,0,0,0-3.159.507,6.717,6.717,0,0,0-2.526,1.672,8.334,8.334,0,0,0-.6,2.941,10.4,10.4,0,0,0,.366,2.942,9.2,9.2,0,0,0,1.673,3.391,7.52,7.52,0,0,0,.878-1.248,7.41,7.41,0,0,0,1.009-3.29" transform="translate(-111.808 -60.208)" fill="#108f6e"/>
              <path id="Trazado_233810" data-name="Trazado 233810" d="M319.269,373.883c0,6.769-65.406,12.257-146.088,12.257S27.092,380.652,27.092,373.883,92.5,361.626,173.181,361.626s146.088,5.487,146.088,12.256" transform="translate(-7.315 -97.643)" fill="#ededed"/>
              <path id="Trazado_233811" data-name="Trazado 233811" d="M75.947,207.256l-.519,1.438s-.583-.21-1.651-.54-2.6-.783-4.454-1.255a110.434,110.434,0,0,0-13.813-2.606,101.993,101.993,0,0,0-14.022-.731c-1.911.1-3.51.107-4.619.23l-1.745.173-.153-1.521,1.779-.177c1.131-.124,2.757-.137,4.7-.234a103.642,103.642,0,0,1,14.244.742A111.971,111.971,0,0,1,69.7,205.419c1.886.48,3.444.935,4.531,1.276s1.714.561,1.714.561" transform="translate(-9.443 -54.547)" fill="#108f6e"/>
              <path id="Trazado_233812" data-name="Trazado 233812" d="M23.4,198.312a6.769,6.769,0,0,1,4.476.7A4.37,4.37,0,0,1,30,202.236a4.566,4.566,0,0,1-1.241,3.555,5.915,5.915,0,0,1-3.575,2.02,8.032,8.032,0,0,1-2.124.06,5.717,5.717,0,0,1-1.916-.608,4.85,4.85,0,0,1-2.475-2.924,4.135,4.135,0,0,1,.812-3.705,6.171,6.171,0,0,1,1.651-1.456,5.961,5.961,0,0,1,2.269-.865" transform="translate(-5.001 -53.518)" fill="#fce300"/>
              <path id="Trazado_233813" data-name="Trazado 233813" d="M26.844,199.984a11.075,11.075,0,0,0-1.5.712,5.645,5.645,0,0,0-2.205,2.078,7.886,7.886,0,0,0,2.783,1.025,10.769,10.769,0,0,0,1.578.207,8.137,8.137,0,0,0-.806,3.633,8,8,0,0,0,.157,1.635,10.3,10.3,0,0,0,3.419-2.342,9.366,9.366,0,0,0,1.9-2.578,8.792,8.792,0,0,0,.938-3.1,7.308,7.308,0,0,0-1.534-2.856,8.728,8.728,0,0,0-2.686-2.124,11.876,11.876,0,0,0-4.668-1.021,7.172,7.172,0,0,0,.472,1.584,9.206,9.206,0,0,0,2.148,3.148" transform="translate(-6.249 -52.72)" fill="#108f6e"/>
              <path id="Trazado_233814" data-name="Trazado 233814" d="M221.2,66.277s-11.833-5.857-13.9-18.725,18.471-17.75,26.986,3.55c0,0-1.544-23.075,12.508-25.59s11.783,25.561,7.518,30.013c0,0,5.9-4.276,11.691-.726s3.919,17.455-14.745,21.152S221.2,66.277,221.2,66.277" transform="translate(-55.932 -6.846)" fill="#ffd200"/>
              <path id="Trazado_233815" data-name="Trazado 233815" d="M240.619,80.632a91.421,91.421,0,0,0-9.3-15.084l.326-.25a91.9,91.9,0,0,1,9.346,15.165Z" transform="translate(-62.459 -17.631)" fill="#fff"/>
              <rect id="Rectángulo_48821" data-name="Rectángulo 48821" width="28.798" height="0.41" transform="translate(187.935 61.754) rotate(-80.255)" fill="#fff"/>
              <path id="Trazado_233816" data-name="Trazado 233816" d="M109.576,112.273s-4.876-10.693-14.93-10.689-11.511,10.62-5.63,18.5a41.718,41.718,0,0,0-23.526-6.164c-13.875.535-24.13,10.79-21.113,22.252s18.5,14.076,22.923,12.87c0,0-15.282,10.858-9.25,20.711s24.933,0,24.933,0Z" transform="translate(-11.839 -27.429)" fill="#bce13e"/>
              <path id="Trazado_233817" data-name="Trazado 233817" d="M96.466,151.109c-.172-.072-17.282-7.126-26.029-8l.081-.816c8.867.881,26.089,7.982,26.262,8.054Z" transform="translate(-19.019 -38.422)" fill="#fff"/>
              <path id="Trazado_233818" data-name="Trazado 233818" d="M70.645,152.154l-.485-.661c3.434-2.518,10.21-5.039,10.5-5.145l.284.769c-.069.026-6.955,2.588-10.3,5.038" transform="translate(-18.944 -39.516)" fill="#fff"/>
              <path id="Trazado_233819" data-name="Trazado 233819" d="M94.353,146.643c-.1-.265-2.357-6.509-2.556-9.047l.818-.064c.191,2.429,2.486,8.768,2.509,8.831Z" transform="translate(-24.786 -37.135)" fill="#fff"/>
              <path id="Trazado_233820" data-name="Trazado 233820" d="M75.141,186.146l-.413-.708a47.466,47.466,0,0,1,15.344-5.987l.116.812a46.614,46.614,0,0,0-15.047,5.882" transform="translate(-20.177 -48.454)" fill="#fff"/>
              <path id="Trazado_233821" data-name="Trazado 233821" d="M122.4,126.693c-.269-.292-6.628-7.23-8.363-12.871l.784-.24c1.68,5.463,8.117,12.486,8.182,12.555Z" transform="translate(-30.79 -30.668)" fill="#fff"/>
              <path id="Trazado_233822" data-name="Trazado 233822" d="M48.867,218.143l-.674-5a62.261,62.261,0,0,0-8.482-.595,62.1,62.1,0,0,0-23.167,4.22l-.3,3.543-1.7-2.671q-1.693.781-3.249,1.681l1.075,6.549-3.914-4.722a21.907,21.907,0,0,0-6.907,7.618A13.706,13.706,0,0,0,.3,237.958a14.966,14.966,0,0,0,3.662,7.169,17.77,17.77,0,0,0,3.054,2.648,22.565,22.565,0,0,0,3.767,2.076c5.437,2.381,12.521,3.254,20.165,2.7l1.812-5.749,2.521,5.289c1.728-.25,3.482-.561,5.229-.95l-.486-3.442,2.861,2.876q1.014-.26,2.024-.549c12.1-3.5,19.745-9.24,24.352-14.143a31.343,31.343,0,0,0,6.19-8.945S68.5,217.117,51.4,213.689Z" transform="translate(0 -57.39)" fill="#ffd200"/>
              <rect id="Rectángulo_48822" data-name="Rectángulo 48822" width="57.275" height="0.82" transform="translate(13.591 179.805) rotate(-10.67)" fill="#fff"/>
              <path id="Trazado_233823" data-name="Trazado 233823" d="M40.1,240.833c-4.011-.232-11.959-3.7-12.3-3.848l.329-.751c.081.035,8.15,3.556,12.014,3.78Z" transform="translate(-7.508 -63.786)" fill="#fff"/>
              <path id="Trazado_233824" data-name="Trazado 233824" d="M48.779,248.067l-.8-.2c.858-3.429,5.3-8.01,5.484-8.2l.588.572c-.045.047-4.471,4.616-5.276,7.83" transform="translate(-12.956 -64.712)" fill="#fff"/>
              <path id="Trazado_233825" data-name="Trazado 233825" d="M71.328,234.325c-4.6-1.054-9.412-5.927-9.615-6.134l.587-.574c.047.049,4.845,4.908,9.212,5.909Z" transform="translate(-16.663 -61.459)" fill="#fff"/>
              <path id="Trazado_233826" data-name="Trazado 233826" d="M368.381,276.255l-1.078,4.8a62.785,62.785,0,0,0,30.185,7.407l1.475-3.14.654,3.021q1.813-.139,3.542-.437l1.237-6.356,1.981,5.646a21.381,21.381,0,0,0,8.9-4.63,13.374,13.374,0,0,0,4.251-7.988,14.61,14.61,0,0,0-.921-7.8,17.282,17.282,0,0,0-1.9-3.458,21.962,21.962,0,0,0-2.743-3.175c-4.168-4.022-10.353-7.22-17.537-9.3l-3.605,4.645-.515-5.693c-1.665-.358-3.375-.666-5.106-.9l-.721,3.314-1.642-3.6q-1.015-.106-2.038-.183c-12.259-.9-21.2,1.764-27.072,4.687a30.568,30.568,0,0,0-8.693,6.087s3.035,11.34,17.515,20.268Z" transform="translate(-93.704 -67.031)" fill="#ffd200"/>
              <rect id="Rectángulo_48823" data-name="Rectángulo 48823" width="0.821" height="55.881" transform="matrix(0.168, -0.986, 0.986, 0.168, 258.315, 194.388)" fill="#fff"/>
              <path id="Trazado_233827" data-name="Trazado 233827" d="M413.5,282.011c-.062-.06-6.251-6.014-9.707-7.527l.328-.752c3.592,1.572,9.692,7.44,9.95,7.689Z" transform="translate(-109.027 -73.911)" fill="#fff"/>
              <path id="Trazado_233828" data-name="Trazado 233828" d="M393.217,270.445l-.353-.74c.057-.027,5.652-2.707,7.475-5.374l.677.464c-1.948,2.849-7.562,5.538-7.8,5.651" transform="translate(-106.078 -71.372)" fill="#fff"/>
              <path id="Trazado_233829" data-name="Trazado 233829" d="M380.447,277.938c-.028-.061-2.77-6.128-6.425-8.523l.45-.685c3.857,2.526,6.608,8.616,6.723,8.874Z" transform="translate(-100.99 -72.56)" fill="#fff"/>
              <rect id="Rectángulo_48824" data-name="Rectángulo 48824" width="30.112" height="1.728" transform="matrix(0.359, -0.933, 0.933, 0.359, 224.207, 274.393)" fill="#bce13e"/>
              <rect id="Rectángulo_48825" data-name="Rectángulo 48825" width="1.728" height="30.112" transform="translate(235.028 246.913) rotate(-21.054)" fill="#bce13e"/>
              <rect id="Rectángulo_48826" data-name="Rectángulo 48826" width="9.348" height="1.728" transform="translate(231.324 257.455)" fill="#bce13e"/>
              <rect id="Rectángulo_48827" data-name="Rectángulo 48827" width="13.546" height="1.728" transform="translate(229.176 263.633)" fill="#bce13e"/>
              <path id="Trazado_233830" data-name="Trazado 233830" d="M62.141,375.637a6.577,6.577,0,0,0,.975,2.006,16.859,16.859,0,0,1,1.923,2.713c.132.527-.5,1-1.106.791a44.915,44.915,0,0,1-6.006-2.977c-1.027-.79-1.317-1.08-1.291-1.264a31.813,31.813,0,0,1,1.64-2.932c.362-.545,3.1-.528,3.865,1.663" transform="translate(-15.292 -100.896)" fill="#91b31e"/>
              <path id="Trazado_233831" data-name="Trazado 233831" d="M78.2,368.087a6.567,6.567,0,0,0,1.815,1.3A16.88,16.88,0,0,1,83,370.847c.367.4.039,1.119-.594,1.223a44.967,44.967,0,0,1-6.7.256c-1.28-.2-1.673-.32-1.738-.494a31.987,31.987,0,0,1,.039-3.359c.057-.653,2.472-1.946,4.19-.387" transform="translate(-19.964 -99.188)" fill="#91b31e"/>
              <path id="Trazado_233832" data-name="Trazado 233832" d="M78.4,315.569s2.112,14.137,2.2,17.838-2.2,20.827-2.2,20.827H73.938s.436-8.345.436-9.651-.436-12.7-.436-12.7l.436-15.86s2.608-1.6,4.025-.454" transform="translate(-19.964 -85.095)" fill="#0e1a34"/>
              <path id="Trazado_233833" data-name="Trazado 233833" d="M63.755,316.106s-1.4,3.627-.961,11.1a86.853,86.853,0,0,0,.793,9.217s-5,19.448-5.656,21.77a10.639,10.639,0,0,0,4.862,1.814s5.3-13.062,7.185-17.707a29.279,29.279,0,0,0,2.448-11.974c.019-4.064.454-15.022.454-15.022Z" transform="translate(-15.642 -85.136)" fill="#0e1a34"/>
              <path id="Trazado_233834" data-name="Trazado 233834" d="M75.135,345.005l-.393-.12a54.456,54.456,0,0,0,2.124-15.808h.41a54.908,54.908,0,0,1-2.142,15.927" transform="translate(-20.181 -88.854)" fill="#fff"/>
              <path id="Trazado_233835" data-name="Trazado 233835" d="M79.177,308.573s-9.2-1.588-12.527-3.433-2.921-3.484-2.459-4.662,1.9-3.689,1.9-3.689l3.259,2.332-.082.726-.556,1.269s1.064.674,2.668,1.565,8.138,3.886,8.138,3.886,1.588,1.31-.336,2.006" transform="translate(-17.249 -80.136)" fill="#ff9a5c"/>
              <path id="Trazado_233836" data-name="Trazado 233836" d="M84.252,312.132a5.9,5.9,0,0,0,1.731,1.242c.072.621.431.884.631.861s.205-.956.205-.956c.179.43.884.86.98.6a1.559,1.559,0,0,0,0-.693s.287.382.5.382.478-.19.383-.669a4.627,4.627,0,0,0-.669-1.578c-.287-.382-.454-.764-1.075-.908a10.277,10.277,0,0,0-1.553-.119,13.5,13.5,0,0,0-1.792,0Z" transform="translate(-22.571 -83.774)" fill="#ff9a5c"/>
              <path id="Trazado_233837" data-name="Trazado 233837" d="M68.779,272.209s-1.223-2.664-4.679-1.656-2.375,4.247-4.607,5.614-5.542,2.088-6.406,5.9,1.8,4.1,0,6.407-2.447,3.959-.5,6.334,5.366,1.656,7.506.5,11.5-5.543,11.5-5.543a3.479,3.479,0,0,0,0-4.751c-2.17-2.451-1.584-6.19-1.584-6.19s.792-.144,1.08-2.3-.4-4.973-2.3-4.319" transform="translate(-13.878 -72.991)" fill="#753519"/>
              <path id="Trazado_233838" data-name="Trazado 233838" d="M306.454,24.836l1.205-.873a36.889,36.889,0,0,0,10.9,8.463c6.767,3.412,9.088,4.714,9.7,4.825s3.524.615,4.53,1.9,1.119,2.013.895,2.07-1.342-1.566-1.342-1.566,1.12,1.443,1.007,1.981-.74-.381-.965-.605-.785-.875-.785-.875a8.871,8.871,0,0,1,1.234,2.019c.044.472-.74-.134-1.346-.807s-1.279-.988-1.436-.785-.225,1.032-.472.875-.291-.785-.4-1.234c-.4-.009-2.223-.666-5.506-1.322s-16.417-6.421-19.409-10.142,2.187-3.924,2.187-3.924" transform="translate(-81.904 -6.47)" fill="#ff9a5c"/>
              <path id="Trazado_233839" data-name="Trazado 233839" d="M409.259,199.543h0a8.626,8.626,0,0,0,2.078-4.422,7.908,7.908,0,0,0-1.05-4.63l.961,1.022c.568.62,1.363,1.415,2.094,2.265l2.788,3.519a10.09,10.09,0,0,0-2.243,4.478,8.316,8.316,0,0,0,.366,4.757,8.257,8.257,0,0,0,2.541-4.082A7.668,7.668,0,0,0,417,200.1a6.545,6.545,0,0,0-.577-2.428l.485.612c.276.38.609.91.957,1.429l1.38,2.086a9.431,9.431,0,0,0,.374,2.527,8.61,8.61,0,0,0,.857,2.265,8.955,8.955,0,0,0,3.63,3.438,8.718,8.718,0,0,0-.945-4.957,7.787,7.787,0,0,0-1.487-1.989,9.494,9.494,0,0,0-2.232-1.413l-.864-1.306-.885-1.338-.5-.755-.577-.734-3.111-3.927a9.351,9.351,0,0,0,9.457,1.1,9,9,0,0,0-4.819-2.428,7.724,7.724,0,0,0-4.948.966l-3.083-3.282a28.5,28.5,0,0,0-2.237-2.139l-1.044-.943a9.854,9.854,0,0,0,2.372.883,12.49,12.49,0,0,0,2.407.28,9.3,9.3,0,0,0,4.751-1.334,10.652,10.652,0,0,0-2.491-1.378,7.241,7.241,0,0,0-2.585-.438,7.979,7.979,0,0,0-4.809,1.666l-1.044-.943-2.449-1.9a30.561,30.561,0,0,0-2.5-1.826l-1.176-.773a9.99,9.99,0,0,0,2.488.518,9.141,9.141,0,0,0,2.4-.024,9.543,9.543,0,0,0,4.549-2.016,8.866,8.866,0,0,0-5.3-1.094,8.043,8.043,0,0,0-4.537,2.353l-1.176-.773c-.709-.459-1.71-.977-2.686-1.539l-1.442-.809-1.3-.623-1.27-.608a10.6,10.6,0,0,0,4.906-.22,9.548,9.548,0,0,0,4.212-2.65,10.9,10.9,0,0,0-2.817-.588,6.659,6.659,0,0,0-2.6.285,7.912,7.912,0,0,0-4.132,2.967l-.593-.283-1.607-.653c-1.317-.572-3.126-1.2-4.946-1.788-1.834-.547-3.688-1.029-5.1-1.293-1.406-.291-2.367-.384-2.367-.384l-.022.234s.665.071,1.659.25,2.309.472,3.615.8c1.295.37,2.6.725,3.544,1.079l1.594.545a10.154,10.154,0,0,0,.5,5,9.164,9.164,0,0,0,2.762,3.8,8.3,8.3,0,0,0,.05-4.824,7.436,7.436,0,0,0-2.863-3.814l1.3.528c.777.323,1.83.713,2.831,1.224,1.008.491,2.032.954,2.775,1.346l1.223.687a9.73,9.73,0,0,0-.232,4.984,8.508,8.508,0,0,0,2.178,4.184,8.2,8.2,0,0,0,.74-4.745,7.613,7.613,0,0,0-.737-2.247A8.329,8.329,0,0,0,395.37,179l1.223.687c.752.383,1.664,1.042,2.608,1.647a40.279,40.279,0,0,1,3.661,2.591,9.682,9.682,0,0,0-.948,4.9,8.92,8.92,0,0,0,1.554,4.473,8.31,8.31,0,0,0,1.42-4.611,7.208,7.208,0,0,0-.405-2.332,8.69,8.69,0,0,0-1.244-2.137l1.111.856a27.99,27.99,0,0,1,2.345,2l2.29,2.069a9.64,9.64,0,0,1,.714.723l.264.281a9.873,9.873,0,0,0-1.655,4.753,7.891,7.891,0,0,0,.192,2.321,10.226,10.226,0,0,0,.76,2.324" transform="translate(-101.516 -46.416)" fill="#bce13e"/>
              <path id="Trazado_233840" data-name="Trazado 233840" d="M64,64.2h0a10.224,10.224,0,0,0-2.912,5,9.29,9.29,0,0,0,.521,5.7l-.985-1.351c-.6-.8-1.361-1.9-2.1-3.02L56.475,67.48c-.286-.412-.5-.769-.654-1.02l-.239-.392a11.187,11.187,0,0,0,3.076-5.152,9.557,9.557,0,0,0,.3-2.829,10.992,10.992,0,0,0-.426-2.938,10.252,10.252,0,0,0-3.356,4.736,9.614,9.614,0,0,0,.113,5.7l-1.555-2.543c-.384-.639-.789-1.265-1.058-1.754l-.445-.818a10.781,10.781,0,0,0-1.175-5.78A10.567,10.567,0,0,0,47,50.354a10.459,10.459,0,0,0,.769,5.978,10.047,10.047,0,0,0,4.217,4.275l.245.45c.153.288.376.7.675,1.17l2.139,3.5c.756,1.286,1.6,2.512,2.227,3.44l1.04,1.545a11.21,11.21,0,0,0-5.187-2.63,10.866,10.866,0,0,0-5.843.431,12.228,12.228,0,0,0,2.513,2.126,9.365,9.365,0,0,0,2.826,1.131,9.938,9.938,0,0,0,6.008-.587l.938,1.388,2.169,2.978c1.548,2.187,3.225,4.278,3.225,4.278a11.459,11.459,0,0,0-2.592-1.518,9.981,9.981,0,0,0-2.734-.775,10.886,10.886,0,0,0-5.8.877,10.564,10.564,0,0,0,5.511,2.845,10.13,10.13,0,0,0,5.968-.981l1.029,1.321c.606.8,1.463,1.832,2.316,2.864L71,87.3l1.1,1.265A10.493,10.493,0,0,0,60.92,87.77h0a10.756,10.756,0,0,0,5.646,2.5,10.087,10.087,0,0,0,5.9-1.281l1.1,1.265c.653.764,1.537,1.769,2.443,2.755l2.475,2.727,1.148,1.219a10.45,10.45,0,0,0-11.185-.278,9.876,9.876,0,0,0,11.575.691s.781.827,1.954,2.067c1.2,1.218,2.767,2.864,4.392,4.457,1.608,1.61,3.252,3.183,4.5,4.352s2.091,1.932,2.091,1.932l.185-.209s-2.381-2.156-4.677-4.406c-1.159-1.113-2.286-2.261-3.145-3.106l-1.407-1.434a10.74,10.74,0,0,0,1.865-5.7,10.407,10.407,0,0,0-1.564-5.7,9.689,9.689,0,0,0-.7,10.994s-1.875-1.909-3.7-3.869c-.924-.968-1.826-1.956-2.5-2.7L76.2,92.807A10.333,10.333,0,0,0,77,81.441a9.665,9.665,0,0,0-1.177,10.945L74.7,91.142l-2.41-2.78c-.885-1-1.737-2.034-2.372-2.811l-1.064-1.29a10.846,10.846,0,0,0,2.364-5.5,10.234,10.234,0,0,0-1.005-5.789,10.215,10.215,0,0,0-2.567,5.181,9.552,9.552,0,0,0,.848,5.671l-1.064-1.29-2.264-2.9c-1.672-2.09-3.22-4.273-3.22-4.273a10.868,10.868,0,0,0,2.673-5.353A10.688,10.688,0,0,0,64,64.2" transform="translate(-12.653 -13.596)" fill="#91b31e"/>
              <path id="Trazado_233841" data-name="Trazado 233841" d="M256.438,33.674a4.265,4.265,0,0,1-1.037-.837,2.876,2.876,0,0,0-.643-.852,2.27,2.27,0,0,0-1.018-.437,4.7,4.7,0,0,0,.83,1.675.414.414,0,0,0,.572-.058,5.528,5.528,0,0,0,.78,1.317s1.191-.41.517-.809" transform="translate(-68.513 -8.518)" fill="#ff9a5c"/>
              <path id="Trazado_233842" data-name="Trazado 233842" d="M293.427,185.5A104.346,104.346,0,1,1,189.08,81.156,104.347,104.347,0,0,1,293.427,185.5" transform="translate(-22.879 -21.913)" fill="#1a6652"/>
              <path id="Trazado_233843" data-name="Trazado 233843" d="M210.072,259.693A93.285,93.285,0,0,1,163.9,85.356,104.357,104.357,0,1,0,289.366,215.549a93.209,93.209,0,0,1-79.294,44.145" transform="translate(-22.879 -23.047)" fill="#19614f"/>
              <path id="Trazado_233844" data-name="Trazado 233844" d="M270.121,34.5s-2.491,2.243-3.325,2.243-9.133-2.486-10.7-2.815-1.483.164-2.1.577,1.324,1.66,1.324,1.66,7.411,3.779,11.243,4.685,6.9-2.2,6.9-2.2,1-4.031-3.337-4.15" transform="translate(-68.549 -9.132)" fill="#ff9a5c"/>
              <path id="Trazado_233845" data-name="Trazado 233845" d="M235.252,37.725s5.827.638,9.851-.385c0,0,2.493,4.185,3.435,5.73l-.41,2a13.489,13.489,0,0,1-9.4,4.571s-4.378-6.052-3.477-11.912" transform="translate(-63.488 -10.082)" fill="#108f6e"/>
              <path id="Trazado_233846" data-name="Trazado 233846" d="M245.108,42.25a4.832,4.832,0,0,1-2.139-.506l.413-.759a3.825,3.825,0,0,0,3.047.133c1.359-.585,2.377-2.1,3.027-4.5.739-2.735.369-4.919-1.068-6.316a6.528,6.528,0,0,0-6.246-1.207c-3.893,1.174-3.5,6.642-3.493,6.7l-.861.071c-.005-.062-.46-6.219,4.1-7.595a7.363,7.363,0,0,1,7.1,1.414c1.169,1.136,2.343,3.3,1.3,7.16-.723,2.677-1.912,4.384-3.53,5.075a4.186,4.186,0,0,1-1.651.334" transform="translate(-64.202 -7.54)" fill="#108f6e"/>
              <path id="Trazado_233847" data-name="Trazado 233847" d="M253.614,33.05s-.748-.289-1.048.222c-.31.529.94.945,2,.841s.109-.876-.95-1.063" transform="translate(-68.183 -8.902)" fill="#ff9a5c"/>
              <path id="Trazado_233848" data-name="Trazado 233848" d="M253.5,34.08a1.428,1.428,0,0,0-1.244.2c-.505.434,1.118,1.046,2.356.935s.128-.935-1.113-1.135" transform="translate(-68.086 -9.185)" fill="#ff9a5c"/>
              <path id="Trazado_233849" data-name="Trazado 233849" d="M285.114,117.591a7.369,7.369,0,0,1-1.091,2.245,18.8,18.8,0,0,0-2.152,3.036c-.147.59.56,1.121,1.238.885a50.243,50.243,0,0,0,6.722-3.332c1.15-.884,1.474-1.208,1.445-1.415a35.859,35.859,0,0,0-1.836-3.281c-.405-.61-3.471-.591-4.326,1.861" transform="translate(-76.103 -31.158)" fill="#91b31e"/>
              <path id="Trazado_233850" data-name="Trazado 233850" d="M253.358,35.051a1.115,1.115,0,0,0-1.1.239c-.449.464.988,1.095,2.091.975s.58-1.135-.99-1.215" transform="translate(-68.089 -9.449)" fill="#ff9a5c"/>
              <path id="Trazado_233851" data-name="Trazado 233851" d="M228.681,44.85s-16.051-3.624-16.644-3.628-2.591-.374-3.553.958a1.917,1.917,0,0,0,1.036,1.258c.888.445,2.073-.437,2.073-.437l19.394,6.835a3.948,3.948,0,0,0-2.306-4.987" transform="translate(-56.293 -11.117)" fill="#108f6e"/>
              <path id="Trazado_233852" data-name="Trazado 233852" d="M209.992,44.05h0a1.442,1.442,0,0,1-.651-.147,2.116,2.116,0,0,1-1.147-1.405l-.036-.2.2-.037a3.533,3.533,0,0,1,.607-.045,4.2,4.2,0,0,1,2.67.909l.2.166-.211.157a3.178,3.178,0,0,1-1.636.6m-1.326-1.414a1.764,1.764,0,0,0,.858.9,1.038,1.038,0,0,0,.468.1,2.468,2.468,0,0,0,1.154-.37,3.845,3.845,0,0,0-2.182-.645c-.115,0-.216.005-.3.011" transform="translate(-56.205 -11.399)" fill="#108f6e"/>
              <path id="Trazado_233853" data-name="Trazado 233853" d="M340.885,335.737h-28.92l4.879-5.622h28.921Z" transform="translate(-84.234 -89.135)" fill="#ffd200"/>
              <g id="Grupo_212994" data-name="Grupo 212994" transform="translate(142.181 31.017)" opacity="0.79">
                <g id="Grupo_212993" data-name="Grupo 212993">
                  <g id="Grupo_212992" data-name="Grupo 212992" clip-path="url(#clip-path-3)">
                    <path id="Trazado_233854" data-name="Trazado 233854" d="M204.781,42.536s-11.388,11.375-9.871,24.971h13.784s-3.4-16.812-.8-24.149a3.889,3.889,0,0,0-3.109-.821" transform="translate(-194.771 -42.49)" fill="#9ae5e5"/>
                  </g>
                </g>
              </g>
              <path id="Trazado_233855" data-name="Trazado 233855" d="M280.146,55.162s-11.137,8.807-12.411,11.851,5.026,9.558,5.026,9.558,5.947,21.168,8,24.709a25.914,25.914,0,0,0,5.027-1.912s-1.983-19.115-2.9-21.665c0,0,14.447-13.511,16.923-17.517s-17.943-6.414-19.662-5.025" transform="translate(-72.245 -14.788)" fill="#0e1a34"/>
              <path id="Trazado_233856" data-name="Trazado 233856" d="M294.7,101.67a7.353,7.353,0,0,1,.033,2.5,18.81,18.81,0,0,0-.561,3.68.883.883,0,0,0,1.5.234,50.288,50.288,0,0,0,4.512-5.992c.631-1.307.775-1.742.656-1.913a35.662,35.662,0,0,0-3.113-2.108c-.636-.364-3.367,1.029-3.031,3.6" transform="translate(-79.425 -26.463)" fill="#91b31e"/>
              <path id="Trazado_233857" data-name="Trazado 233857" d="M274.4,79.979c-.142-4.71,7.728-12.3,8.063-12.616l.283.3c-.081.077-8.074,7.778-7.936,12.306Z" transform="translate(-74.091 -18.189)" fill="#fff"/>
              <path id="Trazado_233858" data-name="Trazado 233858" d="M275.855,84.817l13.725,12.5a30.478,30.478,0,0,0,3-3.707s-5-9.742-7.069-11.724-9.656,2.931-9.656,2.931" transform="translate(-74.484 -21.983)" fill="#0e1a34"/>
              <path id="Trazado_233859" data-name="Trazado 233859" d="M331.107,327.131a7.369,7.369,0,0,1-1.939,1.572,18.875,18.875,0,0,0-3.236,1.839c-.383.472.033,1.253.747,1.326a50.3,50.3,0,0,0,7.5-.17c1.416-.314,1.848-.47,1.908-.67a35.637,35.637,0,0,0-.273-3.749c-.108-.725-2.894-2.005-4.707-.147" transform="translate(-87.966 -88.069)" fill="#91b31e"/>
              <path id="Trazado_233860" data-name="Trazado 233860" d="M201.112,72.522l-.832.024s-.008-.325-.083-.926-.2-1.451-.414-2.467a37.146,37.146,0,0,0-2.416-7.223,40.862,40.862,0,0,0-3.754-6.643c-.563-.879-1.125-1.545-1.488-2.033l-.583-.758.648-.523.593.772c.37.5.941,1.175,1.515,2.07a41.745,41.745,0,0,1,3.827,6.774,38.013,38.013,0,0,1,2.47,7.389c.217,1.045.36,1.924.427,2.547s.087,1,.087,1" transform="translate(-51.719 -14.034)" fill="#108f6e"/>
              <path id="Trazado_233861" data-name="Trazado 233861" d="M189.733,45.857c1.226,1.381,1.28,3.254.146,4.16a3.214,3.214,0,0,1-4.284-4.6c.988-1.067,2.843-.873,4.138.437" transform="translate(-49.933 -12.078)" fill="#fce300"/>
              <path id="Trazado_233862" data-name="Trazado 233862" d="M189.245,47.686a5.351,5.351,0,0,0-.756-.481,3.572,3.572,0,0,0-1.608-.4,3.569,3.569,0,0,0,.349,1.573,6.737,6.737,0,0,0,.364.794,4.583,4.583,0,0,0-2.614,1.233,5.551,5.551,0,0,0,3.854,1.01,4.65,4.65,0,0,0,1.683-.487,4.1,4.1,0,0,0,.857-1.56,5.249,5.249,0,0,0-.709-4.265,4.947,4.947,0,0,0-1.418,2.584" transform="translate(-49.946 -12.178)" fill="#108f6e"/>
              <path id="Trazado_233863" data-name="Trazado 233863" d="M353.809,310.979a7.363,7.363,0,0,1-.341,2.472,18.814,18.814,0,0,0-1.105,3.554.883.883,0,0,0,1.451.457,50.224,50.224,0,0,0,5.358-5.251c.819-1.2,1.027-1.606.935-1.793a35.854,35.854,0,0,0-2.762-2.551c-.574-.455-3.483.515-3.536,3.11" transform="translate(-95.141 -83.099)" fill="#91b31e"/>
              <path id="Trazado_233864" data-name="Trazado 233864" d="M173.558,59.7a20.2,20.2,0,0,0,7.931,14.021c7.608,5.862,14.763,3.467,14.763,3.467s.493-7.53-7.114-13.392a20.2,20.2,0,0,0-15.579-4.1" transform="translate(-46.863 -16.052)" fill="#91b31e"/>
              <rect id="Rectángulo_48829" data-name="Rectángulo 48829" width="0.411" height="24.627" transform="matrix(0.61, -0.792, 0.792, 0.61, 129.757, 46.267)" fill="#fff"/>
              <rect id="Rectángulo_48830" data-name="Rectángulo 48830" width="4.614" height="0.41" transform="translate(132.275 51.449) rotate(-1.835)" fill="#fff"/>
              <rect id="Rectángulo_48831" data-name="Rectángulo 48831" width="0.41" height="4.614" transform="matrix(0.975, -0.224, 0.224, 0.975, 134.249, 45.968)" fill="#fff"/>
              <rect id="Rectángulo_48832" data-name="Rectángulo 48832" width="4.614" height="0.41" transform="translate(137.294 55.316) rotate(-1.835)" fill="#fff"/>
              <rect id="Rectángulo_48833" data-name="Rectángulo 48833" width="0.411" height="4.614" transform="matrix(0.975, -0.224, 0.224, 0.975, 139.268, 49.836)" fill="#fff"/>
              <rect id="Rectángulo_48834" data-name="Rectángulo 48834" width="4.614" height="0.41" transform="translate(142.313 59.184) rotate(-1.835)" fill="#fff"/>
              <rect id="Rectángulo_48835" data-name="Rectángulo 48835" width="0.41" height="4.614" transform="matrix(0.975, -0.224, 0.224, 0.975, 144.287, 53.703)" fill="#fff"/>
              <path id="Trazado_233865" data-name="Trazado 233865" d="M216.488,59.548a16.089,16.089,0,0,0-11.167,6.317c-4.669,6.059-2.761,11.758-2.761,11.758s6,.392,10.665-5.667a16.089,16.089,0,0,0,3.262-12.408" transform="translate(-54.589 -16.079)" fill="#bce13e"/>
              <path id="Trazado_233866" data-name="Trazado 233866" d="M137.03,58.227l4.3-6.9A76.151,76.151,0,0,0,133.772,32.1,61.281,61.281,0,0,0,123.4,18.581l-5.8,4.077s.763-1.653,1.579-3.292L120.8,16.11A77.686,77.686,0,0,0,107.561,6.65c-2.1-1.153-3.933-2.121-5.641-2.871A26.86,26.86,0,0,0,97.56,2.215a24.481,24.481,0,0,0-3.106,6.571,36.7,36.7,0,0,0-1.241,4.947,48.556,48.556,0,0,0-.748,5.868l3.627,1.465,3.6,1.408-3.657.141-3.675.1a56.022,56.022,0,0,0,7.781,28.84,57.656,57.656,0,0,0,3.283,4.993c1.14,1.564,2.3,3.045,3.5,4.411l5.117-.315,5.1-.352-6.428,4.692A67.546,67.546,0,0,0,125.063,75.7c1.95,1.084,3.572,1.845,4.711,2.345s1.8.742,1.8.742l6.015-4.168,6.015-4.168s.036-.378.039-1.128-.009-1.827-.083-3.2a79.492,79.492,0,0,0-1.424-11.169Z" transform="translate(-24.937 -0.598)" fill="#91b31e"/>
              <path id="Trazado_233867" data-name="Trazado 233867" d="M143.22,77.8c-2.268-3.319-7.855-11.536-14.693-22.166-6.855-10.629-14.984-23.661-22.216-36.831a268.677,268.677,0,0,0,18.916,38.849c6.378,11.032,11.934,19.329,14.263,22.733l1.865-1.292Z" transform="translate(-28.705 -5.078)" fill="#fff"/>
              <path id="Trazado_233868" data-name="Trazado 233868" d="M158.023,72.282l4.492-2.7a48.927,48.927,0,0,0,1.29-13.3,39.569,39.569,0,0,0-2.043-10.851l-4.53.675,1.866-1.448,1.871-1.422a48.161,48.161,0,0,0-4.96-9.327,26.607,26.607,0,0,0-4.576-5.391c-1.922,1.033-5.141,3.969-7.842,8.616L145.274,39l1.683,1.836-2.156-.962-2.156-.983a36.355,36.355,0,0,0-3.862,18.77,41.7,41.7,0,0,0,1.149,7.366L146,67.631l-5.068.807a43.915,43.915,0,0,0,5.087,10.346c.8,1.194,1.506,2.108,2.011,2.729s.812.953.812.953l4.679-.614,4.679-.614a25.652,25.652,0,0,0,1.251-2.5,50.961,50.961,0,0,0,2.47-6.839Z" transform="translate(-37.452 -7.699)" fill="#bce13e"/>
              <path id="Trazado_233869" data-name="Trazado 233869" d="M159.228,84.783c-.324-2.574-1.1-8.936-1.918-17.049s-1.688-17.988-2.122-27.669a189.471,189.471,0,0,0-.365,27.861c.434,8.2,1.169,14.6,1.5,17.238l1.45-.191Z" transform="translate(-41.712 -10.818)" fill="#fff"/>
              <path id="Trazado_233870" data-name="Trazado 233870" d="M339.4,118.448s6.909-19.2,6.046-37.818,4.607-32.595,13.533-31.509,16.7,34.775-17.276,71.343Z" transform="translate(-91.642 -13.247)" fill="#bce13e"/>
              <path id="Trazado_233871" data-name="Trazado 233871" d="M343.231,127.351l-.695-.437c.126-.2,12.545-20.213,13.026-42.29l.82.018c-.485,22.309-13.024,42.507-13.151,42.709" transform="translate(-92.488 -22.85)" fill="#fff"/>
              <path id="Trazado_233872" data-name="Trazado 233872" d="M340.949,138.559s12.389-6.459,25.1-7.589,21.687-6.131,20.127-12.086-25.131-8.123-46.8,18.3Z" transform="translate(-91.633 -31.073)" fill="#91b31e"/>
              <path id="Trazado_233873" data-name="Trazado 233873" d="M342.219,140.107l-.526-.63c.125-.1,12.7-10.5,27.822-12.887l.128.81c-14.895,2.356-27.3,12.6-27.425,12.707" transform="translate(-92.261 -34.181)" fill="#fff"/>
              <path id="Trazado_233874" data-name="Trazado 233874" d="M402.842,142.612A92.4,92.4,0,0,0,389.7,142a43.019,43.019,0,0,0-16.112,3.663,20.8,20.8,0,0,0-10.526,11.07,28.17,28.17,0,0,0-2.116,7.371,23.091,23.091,0,0,0,6.825,3.649,20.1,20.1,0,0,0,16.006-.993,36.62,36.62,0,0,0,13.37-11.787,41.166,41.166,0,0,0,5.7-12.357" transform="translate(-97.458 -38.329)" fill="#bce13e"/>
              <path id="Trazado_233875" data-name="Trazado 233875" d="M360.97,166l-.094-.237s2.276-.909,5.651-2.37,7.848-3.469,12.261-5.607,8.763-4.4,11.975-6.187c1.614-.88,2.937-1.652,3.861-2.2l1.455-.849.131.218-1.457.85c-.925.545-2.25,1.318-3.866,2.2-3.217,1.789-7.568,4.062-11.988,6.194s-8.892,4.153-12.271,5.612S360.97,166,360.97,166" transform="translate(-97.44 -40.112)" fill="#fff"/>
              <path id="Trazado_233876" data-name="Trazado 233876" d="M394.312,154.325a6.088,6.088,0,0,1,.058-1.925,14.966,14.966,0,0,1,1.875-4.993l.217.128a14.776,14.776,0,0,0-1.832,4.9,7.852,7.852,0,0,0-.1,1.357,3.328,3.328,0,0,0,.036.485Z" transform="translate(-106.456 -39.801)" fill="#fff"/>
              <path id="Trazado_233877" data-name="Trazado 233877" d="M385.632,161.283l.188-.172a3.938,3.938,0,0,0,.438.38,8.7,8.7,0,0,0,1.377.852,15.691,15.691,0,0,0,6.157,1.528l-.021.256a15.933,15.933,0,0,1-6.257-1.546,6.782,6.782,0,0,1-1.881-1.3" transform="translate(-104.125 -43.502)" fill="#fff"/>
              <path id="Trazado_233878" data-name="Trazado 233878" d="M369.466,168.7l.2-.163a4.541,4.541,0,0,0,.485.457,9.957,9.957,0,0,0,1.537,1.042,18.115,18.115,0,0,0,6.977,2.044l-.031.255a18.384,18.384,0,0,1-7.074-2.062,7.72,7.72,0,0,1-2.089-1.573" transform="translate(-99.76 -45.508)" fill="#fff"/>
              <path id="Trazado_233879" data-name="Trazado 233879" d="M376.386,161.818a9,9,0,0,1,.23-2.859,22.712,22.712,0,0,1,3.152-7.287l.21.139a22.418,22.418,0,0,0-3.1,7.214,11.687,11.687,0,0,0-.257,2.025,5.338,5.338,0,0,0,.02.732Z" transform="translate(-101.62 -40.953)" fill="#fff"/>
              <path id="Trazado_233880" data-name="Trazado 233880" d="M400.37,153.72l.18-.182a4.084,4.084,0,0,0,1.1.672,9.561,9.561,0,0,0,3.66.741l-.009.256a9.868,9.868,0,0,1-3.772-.764,4.045,4.045,0,0,1-1.161-.723" transform="translate(-108.104 -41.457)" fill="#fff"/>
              <path id="Trazado_233881" data-name="Trazado 233881" d="M392.113,198.188c-1.364-5.957-4.09-15.037-12.466-21.818s-18.767-2.056-18.767-2.056-1.866,11.24,6.947,17.6,18.251,6.579,24.286,6.276" transform="translate(-97.397 -46.635)" fill="#91b31e"/>
              <path id="Trazado_233882" data-name="Trazado 233882" d="M360.853,174.957l.129-.168,25.982,19.86-.127.17Z" transform="translate(-97.434 -47.195)" fill="#fff"/>
              <path id="Trazado_233883" data-name="Trazado 233883" d="M385.325,193.119a4.865,4.865,0,0,1,1.47-.64,11.808,11.808,0,0,1,4.461-.285l-.022.212a11.59,11.59,0,0,0-4.375.284,6.253,6.253,0,0,0-1.056.4,2.705,2.705,0,0,0-.352.2Z" transform="translate(-104.042 -51.872)" fill="#fff"/>
              <path id="Trazado_233884" data-name="Trazado 233884" d="M378.7,188.609l.2.077a3.438,3.438,0,0,0-.119.47,7.492,7.492,0,0,0-.122,1.345,13.917,13.917,0,0,0,1.072,5.146l-.2.077a14.139,14.139,0,0,1-1.1-5.225,5.787,5.787,0,0,1,.264-1.89" transform="translate(-102.183 -50.926)" fill="#fff"/>
              <path id="Trazado_233885" data-name="Trazado 233885" d="M366.912,179.607l.2.077a3.842,3.842,0,0,0-.139.538,8.6,8.6,0,0,0-.145,1.54,15.891,15.891,0,0,0,1.218,5.892l-.2.077a16.106,16.106,0,0,1-1.244-5.967,6.605,6.605,0,0,1,.308-2.156" transform="translate(-98.987 -48.496)" fill="#fff"/>
              <path id="Trazado_233886" data-name="Trazado 233886" d="M372.128,182.854a7.27,7.27,0,0,1,2.2-.946,17.732,17.732,0,0,1,6.66-.415l-.023.212a17.5,17.5,0,0,0-6.583.42,9.409,9.409,0,0,0-1.592.6,4.286,4.286,0,0,0-.531.3Z" transform="translate(-100.479 -48.971)" fill="#fff"/>
              <path id="Trazado_233887" data-name="Trazado 233887" d="M389.712,196.992l.2.076a3.512,3.512,0,0,0-.138,1.071,8.267,8.267,0,0,0,.637,3.032l-.2.078a8.488,8.488,0,0,1-.657-3.124,3.5,3.5,0,0,1,.157-1.134" transform="translate(-105.184 -53.19)" fill="#fff"/>
              <path id="Trazado_233888" data-name="Trazado 233888" d="M67.578,288.652s-.295-.415-1.978.339-5.58,5.89-6.732,8.636a28.307,28.307,0,0,0,3.9,2.967,20.076,20.076,0,0,1,2.245-1.638,47.969,47.969,0,0,1-.563,7.971,47.112,47.112,0,0,1-1.226,4.784,21.105,21.105,0,0,0,11.988,1.107s.088-7.131.31-9.877,1.506-5.8.8-8.371-3.738-3.529-6.187-6.038Z" transform="translate(-15.895 -77.907)" fill="#ffd200"/>
              <path id="Trazado_233889" data-name="Trazado 233889" d="M74.361,278.166a7.111,7.111,0,0,0-1.312-3.578c-1.193-1.491-3.816-.954-4.889,1.312a7.706,7.706,0,0,0-.856,3.364.8.8,0,0,0-1.031.031c-.8.545.412,2.467,1.631,2.134a4.219,4.219,0,0,0,1.031,1.24,3.653,3.653,0,0,0,.317,1.964c1.133,1.372,2.464,2.727,3.359,2.13s-.179-1.431-.477-1.908a.5.5,0,0,1,.08-.726c2.683-.358,2.147-5.963,2.147-5.963" transform="translate(-17.825 -73.916)" fill="#ff9a5c"/>
              <path id="Trazado_233890" data-name="Trazado 233890" d="M72.73,275.495s-.7,2.613-2.253,3.189a3.193,3.193,0,0,0,.57-.753s-1.994,1.86-3.1,1.683c0,0-.708-.31-.93-2.79s2.392-3.9,2.392-3.9h2.967l2.081,2.391L74.671,277a2.238,2.238,0,0,1-1.942-1.506" transform="translate(-18.091 -73.693)" fill="#753519"/>
              <path id="Trazado_233891" data-name="Trazado 233891" d="M72.132,312.651s-9.2-1.588-12.527-3.433-2.921-3.484-2.459-4.662,1.9-3.689,1.9-3.689L62.3,303.2l-.082.726-.556,1.269s1.064.674,2.668,1.565,8.138,3.887,8.138,3.887,1.588,1.31-.336,2.005" transform="translate(-15.347 -81.237)" fill="#ff9a5c"/>
              <path id="Trazado_233892" data-name="Trazado 233892" d="M94.276,333.295l-1.861-10.113a2.414,2.414,0,0,0-1.38-1.763l-11.1-5.008.6-1.338,11.1,5.008a3.88,3.88,0,0,1,2.219,2.835l1.861,10.112Z" transform="translate(-21.585 -85.073)" fill="#108f6e"/>
              <path id="Trazado_233893" data-name="Trazado 233893" d="M106.343,331.173a12.681,12.681,0,0,1,3.386-1.7c1.128-.161,1.45,1.055,2.256.85a3.579,3.579,0,0,0,1.451-.864l1.612.857s.161-.447,1.29,0,.483-.036,1.129.448a2.715,2.715,0,0,0,1.612.41,3.224,3.224,0,0,1,1.612,0c.807.235,2.01-.393,3.87,0s3.546-.4,4.514,0,1.451,1.8,2.257,1.422a14.556,14.556,0,0,0,2.1-1.422l1.289,2.257s.484-1.041,1.129,0a5.4,5.4,0,0,0,2.1,1.686,3.206,3.206,0,0,1,.806.988,12.525,12.525,0,0,1,.872,2.956v.967l-24.247-.967-10.156-5.63Z" transform="translate(-28.409 -88.957)" fill="#753519"/>
              <path id="Trazado_233894" data-name="Trazado 233894" d="M99.082,328.489l-1.861-10.113a2.41,2.41,0,0,0-1.38-1.762l-11.1-5.009.6-1.338,11.1,5.009a3.879,3.879,0,0,1,2.219,2.834l1.861,10.113Z" transform="translate(-22.882 -83.775)" fill="#108f6e"/>
              <path id="Trazado_233895" data-name="Trazado 233895" d="M100.762,331.807s-2.051,6.371-2.591,7.45,1.3,4.967,1.3,4.967l19.328,9.5,18.9-13.065Z" transform="translate(-26.48 -89.592)" fill="#108f6e"/>
              <path id="Trazado_233896" data-name="Trazado 233896" d="M95.836,365.645a2.6,2.6,0,0,1-1.462-.386c-.976-.639-1.322-2-1.121-4.4.393-4.722,3.674-17.829,3.813-18.385l.795.2c-.034.136-3.4,13.6-3.792,18.253-.169,2.04.07,3.2.753,3.646,1.03.673,3.431-.022,7.338-2.132,7.34-3.962,12.819-7.574,12.873-7.61l.453.684c-.055.036-5.563,3.668-12.937,7.649-3.114,1.68-5.251,2.483-6.714,2.483" transform="translate(-25.164 -92.471)" fill="#108f6e"/>
              <path id="Trazado_233897" data-name="Trazado 233897" d="M151.912,349.737a5.4,5.4,0,0,0-1.223,2.1c-.066.806,1.223,0,1.223,0s.645.877,1.29.358,0-1.145,0-1.145l.286-1.309Z" transform="translate(-40.687 -94.433)" fill="#753519"/>
              <path id="Trazado_233898" data-name="Trazado 233898" d="M221.326,362.923l-1.1.848-.969-1.3c-.6-.833-1.461-2.024-2.443-3.483-1.979-2.91-4.492-6.874-6.778-10.972s-4.345-8.323-5.756-11.552c-.666-1.633-1.221-2.993-1.61-3.945l-.546-1.523,1.3-.472s.195.545.537,1.5l1.588,3.891c1.393,3.189,3.415,7.373,5.692,11.424s4.756,7.989,6.716,10.87c.972,1.446,1.821,2.624,2.416,3.445l.945,1.273" transform="translate(-54.577 -89.244)" fill="#108f6e"/>
              <path id="Trazado_233899" data-name="Trazado 233899" d="M203.14,320.214a5.706,5.706,0,0,1-.192,3.742,4.154,4.154,0,0,1-2.424,2.429,3.947,3.947,0,0,1-3.449-.458,5.8,5.8,0,0,1-2.364-3.326,6.911,6.911,0,0,1-.231-1.092,6.349,6.349,0,0,1,.005-1.08A5.6,5.6,0,0,1,195,318.5a3.776,3.776,0,0,1,2.672-2.171,4.363,4.363,0,0,1,3.372.812,5.168,5.168,0,0,1,1.272,1.312,7.916,7.916,0,0,1,.828,1.758" transform="translate(-52.506 -85.393)" fill="#fce300"/>
              <path id="Trazado_233900" data-name="Trazado 233900" d="M200.472,323.418a9.8,9.8,0,0,0-.795-1.206,8.863,8.863,0,0,0-.894-1,4.457,4.457,0,0,0-1.078-.838,4.429,4.429,0,0,0-.581,1.281,7.411,7.411,0,0,0-.2,1.343,10.079,10.079,0,0,0,.012,1.5,8.228,8.228,0,0,0-3.409-.473,6.524,6.524,0,0,0-1.475.258,8.489,8.489,0,0,0,5.462,4.681,6.678,6.678,0,0,0,2.928.137,7.893,7.893,0,0,0,2.175-1.986,9.606,9.606,0,0,0,1.88-6.355,7.157,7.157,0,0,0-1.392.534,7.481,7.481,0,0,0-2.634,2.127" transform="translate(-51.856 -86.503)" fill="#108f6e"/>
              <path id="Trazado_233901" data-name="Trazado 233901" d="M156.919,353.324s-.967,1.9-.806,2.379.806,0,.806,0,.967.43,1.451.215a5.671,5.671,0,0,0,1.289-1.267h-1.782Z" transform="translate(-42.147 -95.401)" fill="#753519"/>
              <path id="Trazado_233902" data-name="Trazado 233902" d="M160.453,367.736s-4.049-.433-4.039,0,0,1.668,0,1.668a1.121,1.121,0,0,0-1.783,0,5.355,5.355,0,0,0-1.146,2.634,1.669,1.669,0,0,1-1.4,1.127,1.665,1.665,0,0,0-1.4,1.13,26.476,26.476,0,0,0,3.946.967,13.257,13.257,0,0,0,2.759,0,12.673,12.673,0,0,1,3.063.072c1.451.251,3.063.573,4.514.734s4.03-1.129,4.03-1.129a45.621,45.621,0,0,1,6.287.161,7.61,7.61,0,0,0,3.708-.483l.645-1.453a4,4,0,0,1-2.1-1.352c-.807-1.064-1.774-3.865-2.418-4.077a14.585,14.585,0,0,1-2.418-1.672A12.813,12.813,0,0,1,170.931,362c-.161-1.572-2.256-2.581-2.256-2.581a2.862,2.862,0,0,0-1.613,1.6,1.634,1.634,0,0,1-1.9.979s-.839.14-1.322,1.541a15.27,15.27,0,0,0-.645,2.52s-1.934-.655-2.9,0,.161,1.672.161,1.672" transform="translate(-40.687 -97.048)" fill="#753519"/>
              <rect id="Rectángulo_48836" data-name="Rectángulo 48836" width="1.64" height="6.732" transform="matrix(0.843, -0.538, 0.538, 0.843, 91.505, 263.906)" fill="#108f6e"/>
              <rect id="Rectángulo_48837" data-name="Rectángulo 48837" width="30.113" height="1.728" transform="matrix(0.359, -0.933, 0.933, 0.359, 241.914, 274.394)" fill="#91b31e"/>
              <rect id="Rectángulo_48838" data-name="Rectángulo 48838" width="1.728" height="30.112" transform="translate(252.734 246.913) rotate(-21.054)" fill="#91b31e"/>
              <rect id="Rectángulo_48839" data-name="Rectángulo 48839" width="9.348" height="1.728" transform="translate(249.03 257.455)" fill="#91b31e"/>
              <rect id="Rectángulo_48840" data-name="Rectángulo 48840" width="13.548" height="1.728" transform="translate(246.88 263.633)" fill="#91b31e"/>
              <path id="Trazado_233903" data-name="Trazado 233903" d="M331.374,215.5a13.7,13.7,0,0,0-3.059,4.644,3.833,3.833,0,0,0,2.605,5.154,22.389,22.389,0,0,1,.453,3.454,9.439,9.439,0,0,0,2.605.34,7.088,7.088,0,0,0,1.7-.453v-3.624a9.446,9.446,0,0,0,2.209-2.945c.51-1.416.963-4.871-.68-6.57s-4.929-1-5.833,0" transform="translate(-88.582 -57.909)" fill="#ff9a5c"/>
              <path id="Trazado_233904" data-name="Trazado 233904" d="M296.888,200.807s-.061.254-1.366.658-2.239.031-2.612,1.088.373,3.109-.435,3.544a3.685,3.685,0,0,0-1.057.747s2.05,2.611,2.735,3.73a4.03,4.03,0,0,0,1.244-2.052c.311-1.305,2.435-.678,2.922-1.119a9.871,9.871,0,0,0,1.006-1.119s-.7-4.549-2.437-5.476" transform="translate(-78.686 -54.22)" fill="#91b31e"/>
              <path id="Trazado_233905" data-name="Trazado 233905" d="M335.725,216.875s-2.278-1.588-2.808-3.073.106-2.852,1.4-2.7a12.522,12.522,0,0,1,1.986.366s1.21-1.537,3.307.423a6.155,6.155,0,0,1,1.833,4.716s2.649.742,1.589,3.232a6.286,6.286,0,0,1-3.422,3.3s-.339,1.615-1.24,1.7a5.765,5.765,0,0,0-1.438.3l.166-3.021a1.583,1.583,0,0,0,1.325-1.006c.477-1.007-1.007-.848-1.007-.848s-.848-1.537-.477-2.119c0,0-1.324-.53-1.218-1.272" transform="translate(-89.841 -56.945)" fill="#753519"/>
              <path id="Trazado_233906" data-name="Trazado 233906" d="M315.193,219.72a54.461,54.461,0,0,1-7.536-7.449c-3.464-4.249-5.584-7.289-5.584-7.289a8.636,8.636,0,0,0-.707-3.251,4.876,4.876,0,0,0-1.2-1.767c-.424-.566-.422.459.114,1.457l.536,1s-1.388-2.216-1.9-2.142.1.8.365,1.192a3.062,3.062,0,0,1,.365,1.071s-1-1.533-1.339-1.265.365,1.192.925,1.923a15.045,15.045,0,0,1,1,2.482s4.816,12.5,11.683,17.871,3.281-3.83,3.281-3.83" transform="translate(-80.522 -53.949)" fill="#ff9a5c"/>
              <path id="Trazado_233907" data-name="Trazado 233907" d="M303.158,206.106a7.654,7.654,0,0,1,.207-.9c.058-.088.247-.763.388-1.186s-.063-.831-.3-.627a2.577,2.577,0,0,0-.753,1.411,4.459,4.459,0,0,0,.456,1.3" transform="translate(-81.733 -54.904)" fill="#ff9a5c"/>
              <path id="Trazado_233908" data-name="Trazado 233908" d="M347.192,240.418s3.074,3.729,4.249,4.316,4.277-2,5.877-4.963a44.709,44.709,0,0,0,2.428-5.219,9.305,9.305,0,0,0,2.666-2.944s.213-.642,0-.786-.826.9-1.149,1.3c0,0,.936-1.621.791-1.98s-1.475,1.511-1.475,1.511,1.044-1.907.684-1.943S359.9,231.4,359.9,231.4s-.036-1.188-.4-1.115-.252,1.4-.252,1.4-.36,1.655-.576,2.2-4.751,5.723-5.327,5.866c0,0-1.836-2.591-3.527-3.094s-2.626,3.765-2.626,3.765" transform="translate(-93.746 -62.023)" fill="#ff9a5c"/>
              <path id="Trazado_233909" data-name="Trazado 233909" d="M325.65,259.726s4.258,45.118,5,48.917c0,0,4.035.487,5.409,0,0,0-.3-27.471,0-30.3s2.738-17.242,1.861-19.191-12.272.57-12.272.57" transform="translate(-87.929 -69.775)" fill="#0e1a34"/>
              <path id="Trazado_233910" data-name="Trazado 233910" d="M341.046,259.047s1.515,18.048,2.267,20.811,8.91,14.44,8.91,14.44l-3.579,3.618s-7.4-7.5-9.547-10.229-5.845-14.125-5.845-14.125,2.143-17.339,7.793-14.514" transform="translate(-89.982 -69.861)" fill="#0e1a34"/>
              <path id="Trazado_233911" data-name="Trazado 233911" d="M221.874,110.158c-4.154-1.289-7.161-1.694-9.6-3.067s-4.87-2.389-6.732-2.31-5.729-.937-8.02,0-4.717,5.657-8.231,6.52-12.335-1-14.8-2.575-3.164-4.726-2.456-6.3a13.283,13.283,0,0,0,.851-5.416c-.143-1.029,3.581-3.049,4.87-4.4s2.508-5.761-.542-7.966a103.9,103.9,0,0,0-39.649,18.334,6.393,6.393,0,0,0,.948,2.457c.859,1.432-.518,2.291-.474,2.721s.812.38.142,1.193.012.669-.615,1.242a18.374,18.374,0,0,1-1.63,1.432c-.429.286-.286,1.145-1.145,2.148s-2.435,1.861-2.435,3.437-2.435,3.724-2.721,4.584-2.721,4.153-2.864,6.3a37.613,37.613,0,0,0,0,5.729,13.484,13.484,0,0,1-.108,4.3,33.445,33.445,0,0,0-.752,5.872c-.143,2.864,1,4.154,3.724,5.013s7.87,3.294,9.163,5.157,2.009,4.153,3.011,4.44,1.862,3.294,5.156,5.585,9.453,2.582,12.174,5.517,7.734,10.084,9.023,14.028,3.437,5.4,5.729,7.32,5.156,4.071,7.3,4.214,3.024-.757,2.944-1.524-2.8-3.059-3.231-3.632-1.288-4.44-2.578-7.161-1.432-2.832-1-4.138,1.289-4.165,2.578-4.883,2.291-.194,3.151-1.459,1.163-1.977,1.083-2.766-1.369-1.28-2.658-1.393-1.718-1.259-3.438-1.545-4.153-1-4.726-2.005a2.7,2.7,0,0,0-2.721-1.145c-.859.143-3.438.572-5.156-1.146s-1.862-5.013-2.148-6.731-.573-2.291-.143-3.581.429-2.3,2.435-3.227,5.3-1.651,7.3,0,6.016.362,6.875-.641,3.294-4.01,5.3-4.153,5.3,0,6.588-1.146,6.159-3.562,7.018-5.5,4.154-7.579,4.154-9.415,6.015-5.417,7.733-4.844,4.011-2.148,4.87-2.148,3.438.429,4.87-1.289,2.578-2.873,3.724-4.516,2.005-4.221-2.148-5.51" transform="translate(-33.995 -22.854)" fill="#108f6e"/>
              <path id="Trazado_233912" data-name="Trazado 233912" d="M238.371,285.052a75.842,75.842,0,0,0-8.933-4.751c-4.1-1.728-7.126-7.842-8.206-9.1s-1.943-12.275,0-14.219,3.9-5.182,5.514-7.774,2.261-4.319,1.613-5.4-.647-7.211,0-8.249,3.887-2.981,5.4-2.764,6.263-1.113,8.206-.017,9.286,4.979,12.525,5.2,6.479,3.026,9.07,1.514,6.395.216,8.6,3.456,4.792,6.535,8.463,8.666,3.352,4.075,5.455,4.507,6.8,1.714,9.347,3.455,1.71,3.887-.391,6.479-4.715,6.695-6.432,9.286-1.091,6.479,0,7.558.228,5.614-1.284,6.91-4.751,3.455-6.047,5.831-1.171,4.137-4.149,5.2-9.672,4.086-13.776,5.057-7.558,1.2-10.365,3.57-3.2,8.8-5.845,9.9-10.567,6.063-13.591,5.743-3.019-.926-1.294-3.107,6.092-6.022,8.553-9.523-.78-6.883,1.379-8.3,2.537-5.628,3.212-6.87.493-8.138-7.02-12.255" transform="translate(-59.423 -62.733)" fill="#108f6e"/>
              <path id="Trazado_233913" data-name="Trazado 233913" d="M324.276,156.485c.432.88,2.735,1.888,4.463,2.752s3.351-.465,4.051-2.752,3.724-2.719,5.307-1.855a6.9,6.9,0,0,0,4.463,1.007c1.137-.284,3.342-1.131,3.4-1.153a104.631,104.631,0,0,0-30.145-40.737,22.5,22.5,0,0,1-3.055,3.458,10.807,10.807,0,0,0-2.824,4.024c-.488,1.008-1.928,5.327-1.352,7.2s.337,3.167,2.472,4.751,4.035,2.122,3.085,5.02-.23,5.995-1.237,7.542a5.194,5.194,0,0,0,1.237,6.586c2.362,2.016,5.385,1.584,6.1,1.728s3.6,1.551,4.031,2.431" transform="translate(-83.285 -30.713)" fill="#108f6e"/>
              <path id="Trazado_233914" data-name="Trazado 233914" d="M231.616,200.81a4.817,4.817,0,0,1-1.44,3.275c-1.44,1.3-2.88,3.6-1.44,3.887s4.462.712,5.183,1.148,4.462,2.451,5.471,1.731,1.727-2.448,2.735-2.591,1.3-2.7,2.159-3.508,3.887-3.691,4.176-5.994.575-5.759,0-6.622-4.607-1.44-5.039-2.591-3-2.016-4.955-.864-2.819,3.743-3.107,5.614-3.887,3.24-3.743,6.515" transform="translate(-61.6 -50.799)" fill="#108f6e"/>
              <path id="Trazado_233915" data-name="Trazado 233915" d="M317.26,107.8l-1.186-.891s.354-.467.935-1.379,1.383-2.224,2.269-3.854a91.651,91.651,0,0,0,5.513-12.454,108.678,108.678,0,0,0,3.8-13.1c.456-1.807.682-3.346.9-4.41l.318-1.678,1.462.251s-.117.618-.322,1.7c-.222,1.077-.452,2.635-.913,4.465a110.06,110.06,0,0,1-3.85,13.281,93.01,93.01,0,0,1-5.6,12.659c-.905,1.664-1.72,3.019-2.327,3.951s-.994,1.464-.994,1.464" transform="translate(-85.343 -18.91)" fill="#108f6e"/>
              <path id="Trazado_233916" data-name="Trazado 233916" d="M340.032,60.316c-.441,3.2-2.9,5.423-5.449,4.978s-4.27-3.178-3.862-6.106c.293-2.946,2.629-5.187,5.213-5.006s4.421,2.927,4.1,6.134" transform="translate(-89.282 -14.627)" fill="#fce300"/>
              <path id="Trazado_233917" data-name="Trazado 233917" d="M336.319,62.8a9.543,9.543,0,0,0-.228-1.574,6.368,6.368,0,0,0-1.274-2.648,6.354,6.354,0,0,0-1.767,2.278,11.977,11.977,0,0,0-.652,1.419,8.255,8.255,0,0,0-4.691-2.161,9.776,9.776,0,0,0,3.106,6.486,8.1,8.1,0,0,0,2.639,1.676,7.435,7.435,0,0,0,3.087-.692,9.441,9.441,0,0,0,4.913-5.8,8.7,8.7,0,0,0-5.133,1.022" transform="translate(-88.484 -15.815)" fill="#108f6e"/>
              <path id="Trazado_233918" data-name="Trazado 233918" d="M286.613,21.373a14.714,14.714,0,0,0-3.673,1.671c-2.43,1.4-7.882,6.8-7.882,6.8a20.959,20.959,0,0,0,4.535,5.56,40.615,40.615,0,0,0,3.725-1.889s1.512,7.288-1.512,11.769a8.082,8.082,0,0,0,4.589,2.484c2.861.431,5.884.377,8.368,2.159s6.533,1.62,8.26,0a23.753,23.753,0,0,0,0-10.851,27.711,27.711,0,0,0-3.563-8.153l.918.7s3.131-3.4,3.293-6.047a35.389,35.389,0,0,0-6.209-5.127,8.646,8.646,0,0,0-7.571,0,9.54,9.54,0,0,1-3.278.92" transform="translate(-74.268 -5.285)" fill="#108f6e"/>
              <path id="Trazado_233919" data-name="Trazado 233919" d="M283.163,11.127a10.309,10.309,0,0,0,2.085,4.651c1.443,1.443,2.566.561,2.967.722s.642,1.283.642,2.085a1.487,1.487,0,0,0,2.486.721c1.2-.882.561-4.971.561-4.971a4.945,4.945,0,0,0,.171-3.208,3.731,3.731,0,0,0,.182-2.405c-.433-.883-1.075-.642-1.4,0,0,0-1.523-2.807-3.769-2.326s-4.249,1.684-3.929,4.731" transform="translate(-76.448 -1.712)" fill="#ff9a5c"/>
              <path id="Trazado_233920" data-name="Trazado 233920" d="M291.587,7.731c-.722-.962-.241-3.448-1.177-4.892s-2.912-.962-2.912-.962-.481-2.164-2.326-1.844-3.528,2.806-3.528,2.806a6.008,6.008,0,0,0-2.727,0c-1.764.321-3.768,1.523-3.047,3.288s3.448,1.664,3.448,1.664-.722,3.467,1.81,2.505c.074-.028.138-.068.208-.1a7.856,7.856,0,0,1-.174-.78,3.758,3.758,0,0,1,2.146-4.129,7.517,7.517,0,0,1,1.783-.6c2.245-.481,3.769,2.325,3.769,2.325.321-.641.962-.882,1.4,0a3.733,3.733,0,0,1-.182,2.406,5.182,5.182,0,0,1,.066,2.443,1.606,1.606,0,0,0,.27.043c2.351,0,1.9-3.208,1.177-4.17" transform="translate(-74.447 0)" fill="#753519"/>
              <path id="Trazado_233921" data-name="Trazado 233921" d="M282.98,11.159s2.762-1.168,2.959-5.3c0,0,.85,2.577,4.565,2.115,0,0-.292-3.443-3.353-4.305s-5.3,4.241-5.3,4.241a3.562,3.562,0,0,0,1.13,3.251" transform="translate(-76.091 -0.964)" fill="#753519"/>
              <path id="Trazado_233922" data-name="Trazado 233922" d="M289.825,95.97c-.579-4.859-1.539-9.707-1.548-9.756l.4-.08c.009.049.972,4.914,1.553,9.788Z" transform="translate(-77.838 -23.257)" fill="#fff"/>
              <path id="Trazado_233923" data-name="Trazado 233923" d="M85.086,310.112a11.652,11.652,0,0,1,1.332.1c.476.083.783.758.918,1.029s-.458.243-.756-.135-.359-.472-.359-.472a1.649,1.649,0,0,0-.707,0c-.256.094-.569-.209-.62-.421s.193-.1.193-.1" transform="translate(-22.92 -83.726)" fill="#ff9a5c"/>
              <path id="Trazado_233924" data-name="Trazado 233924" d="M77.207,316.21a5.9,5.9,0,0,0,1.731,1.242c.072.621.431.884.631.861s.205-.956.205-.956c.179.43.884.86.98.6a1.559,1.559,0,0,0,0-.693s.287.383.5.383.477-.191.382-.669a4.611,4.611,0,0,0-.669-1.578c-.287-.382-.454-.764-1.075-.908a10.278,10.278,0,0,0-1.553-.119,13.5,13.5,0,0,0-1.792,0Z" transform="translate(-20.669 -84.875)" fill="#ff9a5c"/>
              <path id="Trazado_233925" data-name="Trazado 233925" d="M77.789,314.567v-.385a8.085,8.085,0,0,1,2.093-.407c.347.122.674.61.865.793s-2.958,0-2.958,0" transform="translate(-21.004 -84.718)" fill="#ff9a5c"/>
              <path id="Trazado_233926" data-name="Trazado 233926" d="M140.237,374.557a7.515,7.515,0,1,1-7.515-7.515,7.515,7.515,0,0,1,7.515,7.515" transform="translate(-33.807 -99.105)" fill="#0e1a34"/>
              <path id="Trazado_233927" data-name="Trazado 233927" d="M134.259,379.452a3.357,3.357,0,1,1,3.357-3.358,3.361,3.361,0,0,1-3.357,3.358m0-6.3a2.947,2.947,0,1,0,2.947,2.946,2.95,2.95,0,0,0-2.947-2.946" transform="translate(-35.345 -100.643)" fill="#fff"/>
              <path id="Trazado_233928" data-name="Trazado 233928" d="M257.838,208.536a22.671,22.671,0,0,0-2.889,3.233c-1.19,1.694,2.039.845,2.889,1.015s1.02,1.4,2.718.953a9.573,9.573,0,0,0,1.7-.443,12.923,12.923,0,0,1,3.568-.51c1.529-.169,1.229-1.28,2.059-2.254a1.719,1.719,0,0,0,0-2.673c-.869-.85-1.379,1.7-3.078,0s-1.642-3.159-3.2-2.429-1.153.987-1.865,1.623-1.9,1.486-1.9,1.486" transform="translate(-68.769 -55.416)" fill="#108f6e"/>
              <path id="Trazado_233929" data-name="Trazado 233929" d="M329.752,230.337a12.657,12.657,0,0,1-9.145-3.908,20,20,0,0,0-4.361,5.21,23.712,23.712,0,0,0,6.513,5.211s-1.565,13.163-.737,17.727c0,0,5.494,1.02,8.892,1.246a28.848,28.848,0,0,0,7.589-.85l-.963-16.255.963,1.133s3.511-3.228,3.568-4.984c0,0-5.008-4.7-7.177-5.437s-3.033,1.075-5.143.906" transform="translate(-85.39 -61.138)" fill="#91b31e"/>
              <path id="Trazado_233930" data-name="Trazado 233930" d="M339.858,288.529l-.41-.007c.007-.37.151-9.066.41-10.267.252-1.179,1.762-9.385,1.778-9.468l.4.074c-.015.083-1.528,8.3-1.78,9.48-.25,1.161-.4,10.1-.4,10.188" transform="translate(-91.655 -72.575)" fill="#fff"/>
              <path id="Trazado_233931" data-name="Trazado 233931" d="M247.174,369.289h-8.382s-4.591-30.722,0-37.212S253,327.8,247.174,369.289" transform="translate(-63.925 -88.919)" fill="#ffd200"/>
              <path id="Trazado_233932" data-name="Trazado 233932" d="M227.107,376.959h-7.482s-9.814-3.061-14.514-10.543,2.272-10.655,7.373-7.453,14.624,18,14.624,18" transform="translate(-54.962 -96.589)" fill="#ffd200"/>
              <path id="Trazado_233933" data-name="Trazado 233933" d="M233.274,372.331h-4.592s-10.883-10.747-12.243-23.739,9.013-8.773,13.6,2.637a73.047,73.047,0,0,1,5.1,21.1Z" transform="translate(-58.408 -91.961)" fill="#91b31e"/>
              <path id="Trazado_233934" data-name="Trazado 233934" d="M254.756,376.959h7.482s9.815-3.061,14.515-10.543-2.272-10.655-7.373-7.453-14.624,18-14.624,18" transform="translate(-68.787 -96.589)" fill="#ffd200"/>
              <path id="Trazado_233935" data-name="Trazado 233935" d="M250.337,372.331h4.59s10.884-10.747,12.243-23.739-9.012-8.773-13.6,2.637a73.046,73.046,0,0,0-5.1,21.1Z" transform="translate(-67.089 -91.961)" fill="#91b31e"/>
              <path id="Trazado_233936" data-name="Trazado 233936" d="M286.035,196.981l.445-.907.577.829.907.445-.829.577-.445.907-.577-.829-.907-.445Z" transform="translate(-77.009 -52.942)" fill="#fff"/>
              <path id="Trazado_233937" data-name="Trazado 233937" d="M307.966,202.258l.271-.552.351.5.552.27-.5.351-.27.553-.352-.5-.552-.271Z" transform="translate(-83.018 -54.463)" fill="#fff"/>
              <path id="Trazado_233938" data-name="Trazado 233938" d="M311.484,192.079l.27-.552.352.5.552.27-.5.351-.27.553-.352-.5-.552-.271Z" transform="translate(-83.968 -51.714)" fill="#fff"/>
              <path id="Trazado_233939" data-name="Trazado 233939" d="M280.893,188.279l.27-.552.352.5.552.27-.5.351-.27.553-.352-.5-.552-.271Z" transform="translate(-75.708 -50.688)" fill="#fff"/>
              <path id="Trazado_233940" data-name="Trazado 233940" d="M285.459,216.176l.27-.552.352.5.552.27-.5.351-.27.553-.352-.5-.552-.271Z" transform="translate(-76.941 -58.221)" fill="#fff"/>
              <path id="Trazado_233941" data-name="Trazado 233941" d="M208.19,45.484l-.166-.119c.162-.228.254-.349.254-.349l.164.124s-.092.12-.251.344" transform="translate(-56.169 -12.155)" fill="#fff"/>
              <path id="Trazado_233942" data-name="Trazado 233942" d="M200.708,57.633l-.2-.044.042-.181.2.047c-.014.059-.027.118-.04.177m.249-1-.2-.053q.113-.416.238-.826l.2.061q-.125.405-.237.818m.5-1.63-.194-.066c.092-.273.189-.542.288-.809l.192.071q-.148.4-.286.8m.595-1.6-.191-.077q.163-.4.332-.792l.188.082q-.168.387-.33.788m.679-1.567-.186-.085q.183-.4.369-.775l.185.091c-.123.25-.247.507-.368.77m.753-1.532-.182-.094q.2-.391.4-.757l.18.1q-.2.364-.4.753m.821-1.5-.178-.1q.224-.389.436-.739l.176.106c-.14.232-.285.477-.434.736m.883-1.461-.173-.109c.169-.267.327-.508.469-.72l.171.113c-.142.212-.3.451-.466.716" transform="translate(-54.139 -12.559)" fill="#fff"/>
              <path id="Trazado_233943" data-name="Trazado 233943" d="M200.465,62.761l-.2-.037c.027-.142.055-.285.083-.426l.2.041q-.045.21-.082.422" transform="translate(-54.073 -16.821)" fill="#fff"/>
              <path id="Trazado_233944" data-name="Trazado 233944" d="M210.248,46.195l-.2-.038c.051-.274.083-.423.083-.423l.2.042s-.031.148-.082.418" transform="translate(-56.715 -12.349)" fill="#fff"/>
              <path id="Trazado_233945" data-name="Trazado 233945" d="M208.849,56.923q-.013-.43-.016-.858h.205q0,.426.015.854Zm.193-1.713-.205,0q.007-.431.022-.857l.205.007q-.015.423-.022.853M209.1,53.5l-.205-.011q.024-.435.054-.856l.2.015q-.03.419-.053.853m.122-1.705-.2-.018q.038-.438.082-.854l.2.022c-.028.275-.056.559-.082.85m.177-1.7-.2-.024q.053-.446.108-.85l.2.027q-.055.4-.108.848m.228-1.693-.2-.031c.047-.312.093-.6.135-.848l.2.034c-.042.251-.087.534-.134.845" transform="translate(-56.387 -12.833)" fill="#fff"/>
              <path id="Trazado_233946" data-name="Trazado 233946" d="M208.993,62.754q-.02-.216-.036-.431l.2-.015c.011.143.023.285.036.429Z" transform="translate(-56.421 -16.824)" fill="#fff"/>
              <path id="Trazado_233947" data-name="Trazado 233947" d="M204.5,61.407c-.01-.142-.019-.282-.026-.423l.205-.009c.007.139.015.278.025.418Zm-.052-1.245c0-.11,0-.22,0-.329,0-.166,0-.331.005-.495l.205,0c0,.163-.005.327-.005.491,0,.108,0,.217,0,.326Zm.239-1.637-.2-.01q.022-.415.057-.823l.2.018q-.035.4-.057.815m.139-1.629-.2-.024q.048-.413.107-.816l.2.029q-.058.4-.107.811m.237-1.618-.2-.037c.048-.274.1-.543.153-.808l.2.041q-.081.4-.153.8m.326-1.6-.2-.046q.094-.408.2-.8l.2.052q-.1.389-.195.794m.409-1.584-.2-.056q.116-.406.236-.789l.2.061q-.118.381-.234.785m.487-1.563-.194-.066c.091-.271.183-.53.274-.777l.192.07q-.135.368-.272.772m.562-1.537-.191-.076c.109-.277.215-.531.312-.762l.189.08c-.1.229-.2.483-.311.758m.642-1.506L207.3,47.4c.22-.476.357-.735.363-.746l.181.1s-.141.265-.358.735" transform="translate(-55.201 -12.597)" fill="#fff"/>
              <path id="Trazado_233948" data-name="Trazado 233948" d="M64.9,300.871c-.088-.054-.18-.1-.268-.157a32.175,32.175,0,0,0-4.391-2.665,1.815,1.815,0,0,1-.179-.1,16.887,16.887,0,0,0-1.191,2.221,28.334,28.334,0,0,0,3.9,2.967s.981-.815,1.78-1.349a7.621,7.621,0,0,1,.351-.916" transform="translate(-15.895 -80.449)" fill="#ffd200"/>
            </g>
          </g>
        </g>
      </g>
    </g>
  </g>
</svg>
