<svg xmlns="http://www.w3.org/2000/svg" width="63.527" height="55.586" viewBox="0 0 63.527 55.586">
  <path id="Icon_awesome-quote-right" data-name="Icon awesome-quote-right" d="M57.571,2.25H41.69a5.957,5.957,0,0,0-5.956,5.956V24.087a5.957,5.957,0,0,0,5.956,5.956h9.926v7.941a7.948,7.948,0,0,1-7.941,7.941h-.993A2.971,2.971,0,0,0,39.7,48.9v5.956a2.971,2.971,0,0,0,2.978,2.978h.993A19.847,19.847,0,0,0,63.527,37.984V8.206A5.957,5.957,0,0,0,57.571,2.25Zm-35.734,0H5.956A5.957,5.957,0,0,0,0,8.206V24.087a5.957,5.957,0,0,0,5.956,5.956h9.926v7.941a7.948,7.948,0,0,1-7.941,7.941H6.948A2.971,2.971,0,0,0,3.97,48.9v5.956a2.971,2.971,0,0,0,2.978,2.978h.993A19.847,19.847,0,0,0,27.793,37.984V8.206A5.957,5.957,0,0,0,21.837,2.25Z" transform="translate(0 -2.25)" fill="#eb6f2d"/>
</svg>
