<svg xmlns="http://www.w3.org/2000/svg" xmlns:xlink="http://www.w3.org/1999/xlink" width="190" height="139" viewBox="0 0 190 139">
  <defs>
    <clipPath id="clip-path">
      <rect id="Rectángulo_33985" data-name="Rectángulo 33985" width="123.173" height="101.469" fill="none"/>
    </clipPath>
    <clipPath id="clip-path-3">
      <rect id="Rectángulo_33983" data-name="Rectángulo 33983" width="23.283" height="25.893" fill="none"/>
    </clipPath>
  </defs>
  <g id="Grupo_213021" data-name="Grupo 213021" transform="translate(-180 -2970)">
    <rect id="Rectángulo_48899" data-name="Rectángulo 48899" width="190" height="139" transform="translate(180 2970)" fill="#ffd667"/>
    <g id="Grupo_80765" data-name="Grupo 80765" transform="translate(213.414 2988.766)">
      <g id="Grupo_80764" data-name="Grupo 80764" clip-path="url(#clip-path)">
        <g id="Grupo_80763" data-name="Grupo 80763" transform="translate(0 0)">
          <g id="Grupo_80762" data-name="Grupo 80762" clip-path="url(#clip-path)">
            <path id="Trazado_114780" data-name="Trazado 114780" d="M118.239,63.96,31.209,101.1a8.12,8.12,0,0,1-10.654-4.281L.653,50.193a8.12,8.12,0,0,1,4.28-10.654L91.964,2.4a8.119,8.119,0,0,1,10.654,4.28l19.9,46.63a8.12,8.12,0,0,1-4.28,10.654" transform="translate(0 -0.288)" fill="#008c7c"/>
            <rect id="Rectángulo_33981" data-name="Rectángulo 33981" width="110.863" height="17.15" transform="translate(7.932 66.958) rotate(-23.112)" fill="#2a435f"/>
            <rect id="Rectángulo_33982" data-name="Rectángulo 33982" width="110.863" height="2.557" transform="matrix(0.92, -0.393, 0.393, 0.92, 5.244, 60.659)" fill="#2a435f"/>
            <path id="Trazado_114781" data-name="Trazado 114781" d="M98.182,1.9a8.039,8.039,0,0,1,2.741,3.381l19.9,46.63a8.118,8.118,0,0,1-4.28,10.654L29.515,99.712a8.219,8.219,0,0,1-1.594.493,8.09,8.09,0,0,0,7.913.9L122.862,63.96a8.119,8.119,0,0,0,4.28-10.654l-19.9-46.63A8.118,8.118,0,0,0,98.182,1.9" transform="translate(-4.624 -0.289)" fill="#007366"/>
            <path id="Trazado_114782" data-name="Trazado 114782" d="M79.827,27.506l-41.2,17.586a3.609,3.609,0,0,1-4.735-1.9L25.657,23.906a3.61,3.61,0,0,1,1.9-4.736l41.2-17.585a3.608,3.608,0,0,1,4.735,1.9l8.23,19.283a3.608,3.608,0,0,1-1.9,4.735" transform="translate(-4.201 -0.214)" fill="#008c7c"/>
            <path id="Trazado_114783" data-name="Trazado 114783" d="M92.74,46.16A26.248,26.248,0,1,1,58.3,32.323,26.248,26.248,0,0,1,92.74,46.16" transform="translate(-7.012 -5.003)" fill="#2a435f"/>
            <path id="Trazado_114784" data-name="Trazado 114784" d="M88.97,49.25A21.021,21.021,0,1,1,61.386,38.168,21.02,21.02,0,0,1,88.97,49.25" transform="translate(-8.05 -6.04)" fill="#ffeabe"/>
            <g id="Grupo_80761" data-name="Grupo 80761" transform="translate(43.902 32.668)" opacity="0.65">
              <g id="Grupo_80760" data-name="Grupo 80760">
                <g id="Grupo_80759" data-name="Grupo 80759" clip-path="url(#clip-path-3)">
                  <path id="Trazado_114785" data-name="Trazado 114785" d="M72.775,57.952c-4.382,6.376-11.748,8.922-16.454,5.689s-4.966-11.024-.583-17.4,11.748-8.922,16.453-5.688,4.966,11.023.584,17.4" transform="translate(-52.615 -39.151)" fill="#fff9f8"/>
                </g>
              </g>
            </g>
            <path id="Trazado_114786" data-name="Trazado 114786" d="M66.464,75.1A2.107,2.107,0,1,1,63.7,73.992,2.107,2.107,0,0,1,66.464,75.1" transform="translate(-10.336 -12.225)" fill="#fff9f8"/>
            <path id="Trazado_114787" data-name="Trazado 114787" d="M65.544,16.191,42.061,26.213a2.73,2.73,0,0,1-3.582-1.439l-.854-2a2.729,2.729,0,0,1,1.438-3.582L62.546,9.168a2.73,2.73,0,0,1,3.582,1.439l.854,2a2.729,2.729,0,0,1-1.438,3.581" transform="translate(-6.194 -1.482)" fill="#2a435f"/>
            <path id="Trazado_114788" data-name="Trazado 114788" d="M64.611,15.778l-21.793,9.3a1.805,1.805,0,0,1-2.369-.952l-.664-1.556a1.806,1.806,0,0,1,.951-2.37l21.793-9.3a1.806,1.806,0,0,1,2.369.952l.664,1.557a1.8,1.8,0,0,1-.951,2.369" transform="translate(-6.564 -1.781)" fill="#ffeabe"/>
            <path id="Trazado_114789" data-name="Trazado 114789" d="M14.523,51.407l-7.6,3.245A1.453,1.453,0,0,1,5.78,51.98l7.6-3.244a1.452,1.452,0,0,1,1.14,2.671" transform="translate(-0.811 -8.051)" fill="#2a435f"/>
            <path id="Trazado_114790" data-name="Trazado 114790" d="M14.05,50.977,7.209,53.9a.587.587,0,0,1-.461-1.08l6.841-2.92a.587.587,0,1,1,.461,1.08" transform="translate(-1.058 -8.255)" fill="#ffeabe"/>
            <path id="Trazado_114791" data-name="Trazado 114791" d="M101.725,12.3l-7.6,3.245a1.453,1.453,0,0,1-1.141-2.672l7.6-3.245a1.453,1.453,0,0,1,1.141,2.672" transform="translate(-15.252 -1.575)" fill="#2a435f"/>
            <path id="Trazado_114792" data-name="Trazado 114792" d="M101.252,11.868l-6.841,2.92a.587.587,0,0,1-.461-1.08l6.841-2.92a.587.587,0,0,1,.461,1.081" transform="translate(-15.499 -1.779)" fill="#ffeabe"/>
            <path id="Trazado_114793" data-name="Trazado 114793" d="M22.012,47.386a1.06,1.06,0,1,1-1.391-.559,1.06,1.06,0,0,1,1.391.559" transform="translate(-3.308 -7.74)" fill="#f14d24"/>
            <path id="Trazado_114794" data-name="Trazado 114794" d="M26.817,45.335a1.061,1.061,0,1,1-1.392-.559,1.062,1.062,0,0,1,1.392.559" transform="translate(-4.104 -7.401)" fill="#2a435f"/>
            <path id="Trazado_114795" data-name="Trazado 114795" d="M110.147,8.389a1.06,1.06,0,1,1-1.392-.559,1.06,1.06,0,0,1,1.392.559" transform="translate(-17.903 -1.282)" fill="#2a435f"/>
            <path id="Trazado_114796" data-name="Trazado 114796" d="M21.545,47.768A.414.414,0,1,1,21,47.55a.415.415,0,0,1,.542.218" transform="translate(-3.436 -7.869)" fill="#ffeabe"/>
            <path id="Trazado_114797" data-name="Trazado 114797" d="M49.058,102.188l-18.991,8.105a1.467,1.467,0,0,1-1.151-2.7l18.99-8.1a1.467,1.467,0,1,1,1.151,2.7" transform="translate(-4.641 -16.456)" fill="#2a435f"/>
            <path id="Trazado_114798" data-name="Trazado 114798" d="M105.38,2.776,91.431,8.729l-.841-1.97a1.326,1.326,0,0,1,.7-1.741L102.8.107a1.326,1.326,0,0,1,1.741.7Z" transform="translate(-14.984 0)" fill="#2a435f"/>
          </g>
        </g>
      </g>
    </g>
  </g>
</svg>
