<svg xmlns="http://www.w3.org/2000/svg" width="123.081" height="122.86" viewBox="0 0 123.081 122.86">
  <g id="Grupo_212710" data-name="Grupo 212710" transform="translate(-7.539 -7.879)">
    <g id="Grupo_212711" data-name="Grupo 212711" transform="translate(7.539 7.879)">
      <path id="Trazado_231455" data-name="Trazado 231455" d="M14.948,76.96A61.54,61.54,0,1,1,76.4,138.481,61.495,61.495,0,0,1,14.948,76.96M76.466,20.741A56.311,56.311,0,1,0,132.9,77.059,56.46,56.46,0,0,0,76.466,20.741" transform="translate(-14.947 -15.621)"/>
      <path id="Trazado_231456" data-name="Trazado 231456" d="M86.339,30.6a56.31,56.31,0,1,1-56.39,56.363A56.452,56.452,0,0,1,86.339,30.6M40.206,86.847A46.155,46.155,0,1,0,86.42,40.837,46.2,46.2,0,0,0,40.206,86.847" transform="translate(-24.821 -25.478)" fill="#ffe6a1"/>
      <path id="Trazado_231457" data-name="Trazado 231457" d="M59.955,106.56a46.155,46.155,0,1,1,46.1,46.133,46.188,46.188,0,0,1-46.1-46.133m5.128.061a41.026,41.026,0,1,0,40.992-40.953,41.063,41.063,0,0,0-40.992,40.953" transform="translate(-44.569 -45.191)"/>
      <path id="Trazado_231459" data-name="Trazado 231459" d="M162.278,128.888a12.462,12.462,0,0,1-.461,1.271q-10.642,22.943-21.291,45.883a2.716,2.716,0,0,1-2.732,1.9c-1.232-.066-2.035-.9-2.419-2.432-1.539-6.153-3.093-12.3-4.588-18.465a1.667,1.667,0,0,0-1.451-1.459c-5.567-1.281-11.119-2.631-16.674-3.966-1.555-.374-2.357-1.164-2.418-2.411a2.68,2.68,0,0,1,1.925-2.708q22.988-9.984,45.97-19.982c2.178-.947,4.109.032,4.14,2.372M138.731,167.73l15.646-33.707-.259-.17-32.849,14.288c3.791,1.176,7.505,2.094,11.237,2.935a3.117,3.117,0,0,1,2.73,2.638c.159.878.424,1.737.641,2.6l2.854,11.411" transform="translate(-77.664 -88.372)"/>
      <path id="Trazado_231460" data-name="Trazado 231460" d="M159.966,182.546l-2.854-11.411c-.217-.868-.482-1.727-.641-2.6a3.117,3.117,0,0,0-2.73-2.638c-3.732-.84-7.446-1.759-11.237-2.935l32.849-14.288.259.17-15.646,33.707" transform="translate(-98.899 -103.187)" fill="#0387d0"/>
    </g>
  </g>
</svg>
